<?xml version="1.0" encoding="UTF-8"?>
<svg id="Layer_1" xmlns="http://www.w3.org/2000/svg" version="1.1" viewBox="0 0 595.28 841.89">
  <!-- Generator: Adobe Illustrator 29.4.0, SVG Export Plug-In . SVG Version: 2.1.0 Build 152)  -->
  <defs>
    <style>
      .st0 {
        fill: #ddccbf;
      }

      .st1 {
        fill: #fff;
        stroke: #231f20;
      }

      .st1, .st2, .st3 {
        stroke-miterlimit: 10;
      }

      .st2 {
        fill: none;
        stroke: #010101;
      }

      .st4 {
        isolation: isolate;
      }

      .st5 {
        fill: #65acde;
      }

      .st6, .st3 {
        fill: #13102b;
      }

      .st3 {
        stroke: #65abde;
        stroke-width: .75px;
      }
    </style>
  </defs>
  <path class="st1" d="M325,268"/>
  <polygon class="st3" points="203.19 42.11 332.14 42.11 357.13 81.6 326.82 148.37 331.34 150.11 331.34 167.04 324.89 179.93 331.34 195.25 341.81 215.4 343.43 225.07 191.1 225.07 194.32 221.04 201.58 200.08 210.44 187.99 211.25 179.93 207.22 168.65 205.61 159.78 207.22 154.14 213.67 150.92 177.4 83.22 203.19 42.11"/>
  <polygon class="st5" points="394.3 225.07 453.13 286.32 453.13 703.81 393 757 139 756 85.01 707.27 84 287.93 140.42 225.07 394.3 225.07"/>
  <path class="st2" d="M-134.42,395.93"/>
  <path class="st3" d="M207,168.65c15.91,2.78,34.83,4.9,56.15,4.99,26.25.11,49.09-2.89,67.48-6.6"/>
  <polyline class="st3" points="176.69 83.22 199.11 75.96 229.07 75.96 304.03 75.96 325.79 75.96 356.42 81.6"/>
  <path class="st3" d="M331.62,190.11c-16.11,4.62-38.12,9.24-64.49,9.96-26.15.71-48.22-2.65-64.49-6.35"/>
  <path class="st2" d="M481.34,225.07"/>
  <path class="st2" d="M3.36-14.42"/>
  <path class="st3" d="M334.15,200.44c-16.71,4.68-39.54,9.37-66.89,10.09-27.13.72-50.01-2.69-66.89-6.43"/>
  <path class="st3" d="M210,177.81c15.03,2.78,32.91,4.9,53.06,4.99,24.8.11,46.39-2.89,63.76-6.6"/>
  <path class="st3" d="M212.96,150.92c11.19,3.87,29.05,8.52,51.27,7.95,25.11-.65,50.95-5.27,62.28-10.37"/>
  <g>
    <path class="st0" d="M369.54,149.46"/>
    <path class="st2" d="M369.54,149.46"/>
  </g>
  <polygon class="st6" points="143 237 393.26 237 441 286 441 690 396 742 143 742 98 692 98 288 143 237"/>
  <g class="st4">
    <g class="st4">
      <path class="st5" d="M189.02,404.54l-1.37-1.41c2.13-2.55,4.25-4.44,6.36-5.66s3.94-1.83,5.48-1.83c.59,0,1.05.15,1.39.44.34.29.51.72.51,1.28,0,.68-.08,1.38-.23,2.09-.15.71-.63,2.41-1.42,5.08,3.59-3.59,6.03-5.8,7.35-6.64,2.2-1.43,4.22-2.14,6.05-2.14,1.2,0,2.2.56,3.02,1.69.82,1.12,1.23,2.82,1.23,5.1,0,5.67-1.77,11.06-5.3,16.17s-7.45,7.66-11.73,7.66c-1.69,0-3.37-.46-5.06-1.37l-3,11.6c-.19.7-.28,1.28-.28,1.72,0,.87.33,1.49.98,1.86,1.01.59,3.13,1.07,6.36,1.44l-.46,1.76c-3.77-.3-6.74-.46-8.89-.46s-5.11.15-8.65.46l.46-1.76c1.78-.19,3.08-.68,3.88-1.48s1.46-2.21,1.95-4.25l6.36-26.68c1.2-4.97,1.79-7.73,1.79-8.3,0-.61-.29-.91-.88-.91-1.03,0-3,1.51-5.91,4.54ZM196.15,421.14c1.85,1.85,3.75,2.78,5.69,2.78,2.81,0,5.27-2.19,7.39-6.57s3.18-8.66,3.18-12.83c0-1.34-.3-2.35-.9-3.04-.6-.69-1.4-1.04-2.4-1.04-1.12,0-2.39.55-3.79,1.65-2.18,1.71-3.84,3.41-4.98,5.1-.82,1.22-1.59,3.33-2.32,6.33l-1.87,7.63Z"/>
      <path class="st5" d="M238.59,416.57l1.16,1.55c-5.74,5.46-10.66,8.19-14.77,8.19-1.66,0-2.94-.56-3.81-1.69s-1.32-2.93-1.32-5.41c0-5.02,1.52-10.01,4.57-14.98,3.42-5.65,7.51-8.47,12.27-8.47,1.66,0,2.94.42,3.81,1.25s1.32,1.97,1.32,3.43-.53,3.02-1.58,4.5-2.94,3.01-5.66,4.61c-1.36.77-4.27,2.17-8.72,4.18-.21,1.27-.32,2.47-.32,3.62,0,1.66.26,2.82.79,3.48s1.29.98,2.3.98,2.02-.27,3.16-.81c1.55-.73,3.81-2.2,6.79-4.43ZM226.29,411.47c3.77-1.69,6.61-3.5,8.51-5.45,1.29-1.36,1.93-2.71,1.93-4.04,0-1.01-.26-1.81-.79-2.41s-1.21-.9-2.06-.9-1.71.33-2.53.98c-1.1.87-2.03,2.18-2.78,3.94-1.08,2.58-1.84,5.2-2.29,7.88Z"/>
      <path class="st5" d="M254.49,390.41l5.58-2.14-2.53,9.84h7.28l-.56,2.5h-7.29l-3.07,11.78c-.97,3.54-1.46,6-1.46,7.38,0,.63.13,1.09.4,1.37.27.28.64.42,1.11.42.73,0,1.84-.43,3.34-1.3,1.97-1.15,3.84-2.45,5.62-3.9l1.34,1.62c-5.13,3.87-8.57,6.23-10.3,7.1-1.73.87-3.13,1.3-4.18,1.3-.87,0-1.55-.32-2.06-.95-.5-.63-.76-1.66-.76-3.09,0-1.69.44-4.27,1.34-7.73l3.58-13.99h-5.7l.63-2.5h5.7l1.97-7.7Z"/>
      <path class="st5" d="M291.65,395.23l2.32-.49-2.64,8.89c-1.05,3.54-2.05,7.62-2.99,12.23-.52,2.51-.77,4.12-.77,4.85s.29,1.09.88,1.09c.37,0,.97-.25,1.79-.74,1.45-.87,2.85-1.95,4.18-3.23l1.12,1.37c-2.67,2.44-4.38,3.91-5.13,4.43-1.5,1.03-2.93,1.79-4.29,2.29-.89.33-1.76.49-2.6.49-.61,0-1.07-.14-1.37-.42-.3-.28-.46-.69-.46-1.23,0-.35.09-.83.28-1.44l1.41-4.78c-2.02,2.41-4.42,4.49-7.21,6.22-1.71,1.08-3.28,1.62-4.71,1.62s-2.4-.48-3.13-1.44c-.98-1.29-1.48-2.98-1.48-5.06,0-2.48.66-5.25,1.99-8.3,1.32-3.05,3.1-5.81,5.33-8.3,2.23-2.48,4.57-4.31,7.03-5.48,1.9-.89,4.34-1.34,7.31-1.34.75,0,1.51.05,2.29.14l.84-1.37ZM287.29,400.6c-1.27-.26-2.33-.39-3.2-.39-2.11,0-3.95.58-5.52,1.74-1.57,1.16-3.03,3.25-4.38,6.26-1.35,3.01-2.02,6.02-2.02,9.02,0,1.59.27,2.74.81,3.45.54.7,1.24,1.05,2.11,1.05,1.62,0,3.35-.87,5.2-2.62,1.85-1.75,3.21-4.26,4.08-7.54l2.92-10.97Z"/>
      <path class="st5" d="M312.53,416.92l1.2,1.27c-1.83,2.06-3.99,3.94-6.49,5.64s-4.55,2.55-6.17,2.55c-.73,0-1.32-.28-1.79-.83s-.7-1.31-.7-2.27c0-1.88.73-5.77,2.18-11.67l3.79-15.43c1.38-5.58,2.54-9.32,3.48-11.21,1.45-2.87,3.5-5.1,6.16-6.69,2.66-1.59,5.46-2.38,8.41-2.38,1.01,0,1.8.24,2.37.73.57.48.86,1.07.86,1.75,0,.76-.28,1.38-.84,1.86s-1.38.73-2.45.73c-.7,0-1.69-.12-2.98-.35-1.12-.19-2.16-.28-3.12-.28s-1.68.2-2.17.59c-.68.56-1.29,1.74-1.84,3.53-.55,1.8-1.44,5.34-2.68,10.64l-3.51,14.73c-1.74,7.38-2.6,11.24-2.6,11.57,0,.75.27,1.12.81,1.12s1.27-.3,2.25-.91c1.95-1.22,3.89-2.78,5.84-4.68Z"/>
      <path class="st5" d="M316.29,403.98l-1.55-1.2c2.34-2.58,4.48-4.41,6.41-5.5,1.93-1.09,3.58-1.63,4.93-1.63.75,0,1.32.16,1.72.49s.6.77.6,1.34c0,.68-.76,3.56-2.28,8.65-2.48,8.32-3.72,13.34-3.72,15.05,0,.33.08.6.25.83s.34.33.53.33c.75,0,2.67-1.45,5.77-4.36l1.37,1.34c-3.21,3.02-5.55,4.96-7.03,5.8s-2.68,1.27-3.62,1.27c-.82,0-1.47-.26-1.95-.77s-.72-1.23-.72-2.14c0-2.93,1.76-10.09,5.27-21.48.16-.54.25-1.02.25-1.44,0-.47-.21-.7-.63-.7-.47,0-1,.19-1.6.56s-1.93,1.57-3.99,3.59ZM330.11,380.71c.73,0,1.32.24,1.79.72s.7,1.1.7,1.85c0,1.03-.36,1.94-1.07,2.72s-1.52,1.18-2.41,1.18c-.7,0-1.29-.25-1.76-.74s-.7-1.14-.7-1.93c0-1.05.34-1.95,1.02-2.69s1.49-1.11,2.43-1.11Z"/>
      <path class="st5" d="M356.4,395.23l2.32-.49-2.64,8.89c-1.05,3.54-2.05,7.62-2.99,12.23-.52,2.51-.77,4.12-.77,4.85s.29,1.09.88,1.09c.38,0,.97-.25,1.79-.74,1.45-.87,2.85-1.95,4.18-3.23l1.12,1.37c-2.67,2.44-4.38,3.91-5.13,4.43-1.5,1.03-2.93,1.79-4.29,2.29-.89.33-1.76.49-2.6.49-.61,0-1.07-.14-1.37-.42s-.46-.69-.46-1.23c0-.35.09-.83.28-1.44l1.41-4.78c-2.02,2.41-4.42,4.49-7.21,6.22-1.71,1.08-3.28,1.62-4.71,1.62s-2.4-.48-3.13-1.44c-.98-1.29-1.48-2.98-1.48-5.06,0-2.48.66-5.25,1.99-8.3s3.1-5.81,5.33-8.3,4.57-4.31,7.03-5.48c1.9-.89,4.34-1.34,7.31-1.34.75,0,1.51.05,2.29.14l.84-1.37ZM352.04,400.6c-1.27-.26-2.33-.39-3.2-.39-2.11,0-3.95.58-5.52,1.74s-3.03,3.25-4.38,6.26-2.02,6.02-2.02,9.02c0,1.59.27,2.74.81,3.45s1.24,1.05,2.11,1.05c1.62,0,3.35-.87,5.2-2.62s3.21-4.26,4.08-7.54l2.92-10.97Z"/>
    </g>
  </g>
  <g class="st4">
    <g class="st4">
      <path class="st5" d="M187.61,462.33l-.16.67c-.54.12-.98.18-1.32.18s-.87-.04-1.63-.11c-.57-.05-1.08-.07-1.54-.07-.78,0-1.59.07-2.41.21l.16-.64c.79-.08,1.36-.24,1.72-.49.26-.18.48-.49.66-.92s.6-1.95,1.25-4.54l1.5-6.21.08-.29c-.46-.02-.81-.04-1.04-.04-1.45,0-2.59.16-3.44.47s-1.48.77-1.91,1.36-.64,1.24-.64,1.93c0,.24.04.47.13.67.06.14.23.37.52.68.27.29.4.56.4.8,0,.21-.08.39-.23.54-.16.15-.34.22-.56.22-.33,0-.59-.16-.8-.47-.3-.46-.45-1.05-.45-1.76,0-.95.29-1.88.88-2.78s1.4-1.59,2.43-2.09,2.29-.74,3.76-.74c.7,0,1.82.1,3.36.3,1.09.14,1.89.21,2.38.21s.84-.08,1.04-.25.3-.38.3-.66c0-.05-.01-.16-.04-.33-.02-.15-.04-.25-.04-.29,0-.21.07-.39.21-.53s.31-.21.5-.21c.23,0,.43.09.58.26s.23.4.23.69c0,.59-.32,1.11-.95,1.54-.63.43-1.69.64-3.17.64-.53,0-1.1-.02-1.7-.07-.08.28-.33,1.23-.74,2.86l-1.02,4.05-.62,2.47-.65,2.82c.52.06.96.09,1.3.09.52,0,1.07-.07,1.64-.2Z"/>
      <path class="st5" d="M199.45,460.52l.3.43c-.72.8-1.46,1.43-2.21,1.9-.52.32-.94.48-1.28.48-.27,0-.49-.11-.66-.33s-.25-.56-.25-1.02c0-.31.06-.77.19-1.37s.49-1.88,1.1-3.85c.27-.97.4-1.54.4-1.7,0-.25-.13-.38-.4-.38-.33,0-.74.16-1.23.49-.69.45-1.3,1.03-1.83,1.73-.34.45-.61,1.11-.81,2l-.92,4.09h-1.75c.38-1.37.66-2.48.87-3.35l1.72-7.52c.31-1.39.72-2.46,1.24-3.21.51-.75,1.18-1.35,2-1.79s1.64-.67,2.44-.67c.34,0,.6.08.8.25.2.17.29.38.29.63,0,.21-.1.4-.29.56-.19.16-.45.24-.78.24-.19,0-.43-.02-.73-.06-.67-.1-1.14-.15-1.4-.15-.36,0-.65.15-.88.44-.23.29-.46.97-.7,2.05l-1.31,5.78c.93-.97,1.94-1.8,3.04-2.47.64-.4,1.16-.6,1.55-.6.31,0,.54.09.72.27.17.18.26.43.26.75,0,.27-.03.53-.09.8-.1.46-.34,1.3-.72,2.51-.51,1.67-.81,2.71-.9,3.12-.09.41-.14.77-.14,1.09,0,.12.02.22.06.28s.11.09.19.09c.19,0,.54-.22,1.05-.67.29-.24.64-.53,1.05-.87Z"/>
      <path class="st5" d="M206.74,460.06l.39.52c-1.91,1.82-3.55,2.73-4.92,2.73-.55,0-.98-.19-1.27-.56s-.44-.98-.44-1.8c0-1.67.51-3.34,1.52-4.99,1.14-1.88,2.5-2.82,4.09-2.82.55,0,.98.14,1.27.42s.44.66.44,1.14-.18,1.01-.53,1.5-.98,1-1.89,1.54c-.45.26-1.42.72-2.91,1.39-.07.42-.11.82-.11,1.21,0,.55.09.94.26,1.16s.43.33.77.33.67-.09,1.05-.27c.52-.24,1.27-.73,2.26-1.48ZM202.64,458.36c1.26-.56,2.2-1.17,2.84-1.82.43-.45.64-.9.64-1.35,0-.34-.09-.6-.26-.8s-.4-.3-.69-.3-.57.11-.84.33c-.37.29-.68.73-.93,1.31-.36.86-.61,1.73-.76,2.62Z"/>
      <path class="st5" d="M227.36,451.77h-.62c.06-.4.09-.71.09-.95,0-.31-.13-.52-.39-.62s-1.25-.15-2.96-.15h-1.71s-1.29,5.18-1.29,5.18h2.42c.76,0,1.23-.06,1.41-.17s.3-.4.38-.85h.67c-.25.95-.47,1.98-.67,3.12h-.6c.04-.37.06-.65.06-.86,0-.09-.05-.19-.16-.32-.05-.06-.16-.11-.3-.13-.21-.04-.54-.06-.99-.06h-2.4c-.69,2.65-1.41,4.73-2.16,6.24.73-.23,1.37-.34,1.94-.34.94,0,2.09.15,3.45.45.72.16,1.21.25,1.47.25.34,0,.62-.09.83-.26.21-.17.32-.37.32-.58,0-.12-.05-.33-.16-.61-.07-.2-.1-.38-.1-.55s.07-.34.22-.48.32-.21.52-.21c.24,0,.44.09.6.28s.24.44.24.75c0,.66-.29,1.25-.87,1.75-.58.5-1.35.75-2.3.75-.5,0-1.13-.04-1.9-.13-1.68-.19-2.96-.28-3.85-.28-1.16,0-2.51.09-4.06.28l.19-.65c.93-.26,1.47-.44,1.64-.56s.3-.3.41-.53c.37-.74.86-2.23,1.46-4.46.6-2.23,1.2-4.59,1.82-7.07-.94,0-1.83.22-2.66.67s-1.49,1.02-1.96,1.74c-.47.71-.7,1.46-.7,2.25,0,.33.03.63.1.88.07.25.22.6.45,1.05.15.27.22.5.22.67s-.07.32-.22.46c-.14.13-.32.2-.53.2-.3,0-.54-.15-.72-.46-.26-.45-.4-1.05-.4-1.82,0-1.64.62-3.11,1.86-4.42s3.05-1.96,5.43-1.96h4.02c1.39,0,2.42-.09,3.08-.27-.31,1.3-.51,2.23-.6,2.78Z"/>
      <path class="st5" d="M234.05,453.14c.7,0,1.23.13,1.61.4s.57.58.57.93c0,.21-.08.39-.24.55s-.35.23-.58.23c-.15,0-.28-.03-.39-.1s-.27-.23-.47-.5c-.38-.51-.76-.76-1.14-.76-.32,0-.6.12-.85.37-.25.25-.37.55-.37.92,0,.32.08.63.23.93.16.3.55.79,1.18,1.46.87.92,1.3,1.79,1.3,2.62s-.35,1.55-1.05,2.17c-.7.62-1.61.93-2.72.93-.93,0-1.62-.19-2.07-.57s-.68-.85-.68-1.4c0-.27.09-.5.26-.68s.38-.27.63-.27c.22,0,.41.07.56.22s.23.31.23.51c0,.08,0,.18-.02.3,0,.1,0,.19,0,.26,0,.26.11.48.33.66.21.18.5.27.86.27.42,0,.79-.07,1.11-.22.32-.14.57-.36.75-.66.18-.29.27-.58.27-.87s-.08-.56-.25-.84c-.17-.28-.54-.75-1.13-1.39-.81-.91-1.22-1.78-1.22-2.61,0-.76.31-1.43.93-2.01s1.4-.86,2.36-.86Z"/>
      <path class="st5" d="M241.73,453.14c.7,0,1.23.13,1.61.4s.57.58.57.93c0,.21-.08.39-.24.55s-.35.23-.58.23c-.15,0-.28-.03-.39-.1s-.27-.23-.47-.5c-.38-.51-.76-.76-1.14-.76-.32,0-.6.12-.85.37-.25.25-.37.55-.37.92,0,.32.08.63.23.93.16.3.55.79,1.18,1.46.87.92,1.3,1.79,1.3,2.62s-.35,1.55-1.05,2.17c-.7.62-1.61.93-2.72.93-.93,0-1.62-.19-2.07-.57s-.68-.85-.68-1.4c0-.27.09-.5.26-.68s.38-.27.63-.27c.22,0,.41.07.56.22s.23.31.23.51c0,.08,0,.18-.02.3,0,.1,0,.19,0,.26,0,.26.11.48.33.66.21.18.5.27.86.27.42,0,.79-.07,1.11-.22.32-.14.57-.36.75-.66.18-.29.27-.58.27-.87s-.08-.56-.25-.84c-.17-.28-.54-.75-1.13-1.39-.81-.91-1.22-1.78-1.22-2.61,0-.76.31-1.43.93-2.01s1.4-.86,2.36-.86Z"/>
      <path class="st5" d="M250.4,460.06l.39.52c-1.91,1.82-3.55,2.73-4.92,2.73-.55,0-.98-.19-1.27-.56s-.44-.98-.44-1.8c0-1.67.51-3.34,1.52-4.99,1.14-1.88,2.5-2.82,4.09-2.82.55,0,.98.14,1.27.42s.44.66.44,1.14-.18,1.01-.53,1.5-.98,1-1.89,1.54c-.45.26-1.42.72-2.91,1.39-.07.42-.11.82-.11,1.21,0,.55.09.94.26,1.16s.43.33.77.33.67-.09,1.05-.27c.52-.24,1.27-.73,2.26-1.48ZM246.3,458.36c1.26-.56,2.2-1.17,2.84-1.82.43-.45.64-.9.64-1.35,0-.34-.09-.6-.26-.8s-.4-.3-.69-.3-.57.11-.84.33c-.37.29-.68.73-.93,1.31-.36.86-.61,1.73-.76,2.62Z"/>
      <path class="st5" d="M252.77,455.9l-.4-.41c1-.96,1.8-1.59,2.39-1.91.59-.31,1.1-.47,1.52-.47.16,0,.29.04.39.11s.14.15.14.25c0,.07-.02.2-.06.38l-.53,2.36c.8-.88,1.79-1.71,2.99-2.47.64-.4,1.17-.6,1.58-.6.3,0,.54.1.71.29.17.2.26.48.26.84,0,.24-.04.52-.1.82-.12.51-.45,1.61-.98,3.32-.5,1.59-.75,2.65-.75,3.18,0,.16.02.28.07.36s.11.12.2.12c.23,0,.58-.22,1.07-.66.34-.31.69-.6,1.03-.87l.29.42c-.72.79-1.46,1.43-2.24,1.91-.49.31-.9.47-1.22.47-.3,0-.53-.11-.69-.32s-.25-.56-.25-1.05c0-.7.43-2.43,1.3-5.19.27-.98.4-1.56.4-1.72,0-.24-.14-.36-.43-.36-.31,0-.71.16-1.21.49-.73.48-1.35,1.06-1.84,1.71-.31.42-.57,1.1-.79,2.02l-.95,4.1h-1.75c.33-1.17.61-2.3.86-3.37l1.04-4.46c.04-.18.06-.31.06-.39,0-.21-.08-.32-.23-.32-.12,0-.3.08-.54.25-.48.32-.94.72-1.36,1.18Z"/>
      <path class="st5" d="M269.89,460.46l.25.68c-1.86,1.46-3.43,2.19-4.71,2.19-.68,0-1.17-.24-1.48-.73s-.46-1.1-.46-1.84c0-1.23.33-2.5.98-3.81s1.45-2.3,2.39-3c.73-.54,1.56-.81,2.48-.81.58,0,1.02.11,1.31.33s.45.48.45.8c0,.24-.08.44-.23.59s-.38.23-.66.23-.62-.12-1.05-.38c-.45-.27-.82-.4-1.11-.4-.38,0-.76.17-1.14.52-.38.35-.74,1.02-1.08,2.02-.34,1-.52,2-.52,3.01,0,.74.14,1.31.43,1.72.21.31.51.47.89.47.91,0,2-.53,3.27-1.59Z"/>
      <path class="st5" d="M277.75,460.06l.39.52c-1.91,1.82-3.55,2.73-4.92,2.73-.55,0-.98-.19-1.27-.56s-.44-.98-.44-1.8c0-1.67.51-3.34,1.52-4.99,1.14-1.88,2.5-2.82,4.09-2.82.55,0,.98.14,1.27.42s.44.66.44,1.14-.18,1.01-.53,1.5-.98,1-1.89,1.54c-.45.26-1.42.72-2.91,1.39-.07.42-.11.82-.11,1.21,0,.55.09.94.26,1.16s.43.33.77.33.67-.09,1.05-.27c.52-.24,1.27-.73,2.26-1.48ZM273.65,458.36c1.26-.56,2.2-1.17,2.84-1.82.43-.45.64-.9.64-1.35,0-.34-.09-.6-.26-.8s-.4-.3-.69-.3-.57.11-.84.33c-.37.29-.68.73-.93,1.31-.36.86-.61,1.73-.76,2.62Z"/>
      <path class="st5" d="M298.98,452.08h-.63c.13-.66.2-1.08.2-1.27,0-.26-.09-.45-.27-.57s-.52-.19-1.02-.19h-.75s-.25,0-.25,0h-2.34c-.05.18-.17.64-.38,1.37-.42,1.52-.74,2.76-.96,3.73h2.28c.55,0,.91-.05,1.08-.16.16-.11.3-.39.41-.83h.63c-.24.98-.45,2.01-.63,3.08h-.64c.05-.45.08-.71.08-.79,0-.19-.09-.33-.28-.42-.11-.05-.41-.09-.89-.11h-2.24c-.23,1.09-.52,2.26-.89,3.52s-.68,2.23-.95,2.92c.62.1,1.18.15,1.67.15.32,0,.64-.02.95-.07l-.2.67c-.23.02-.44.04-.63.04-.17,0-.71-.03-1.62-.08-.54-.04-1-.06-1.37-.06-.76,0-1.57.07-2.43.21l.14-.64c.7-.15,1.15-.3,1.38-.47s.39-.36.51-.6c.24-.48.7-1.95,1.36-4.43l1.79-7.02c-1.05.03-1.96.27-2.75.7s-1.41,1.03-1.88,1.76-.7,1.49-.7,2.24c0,.3.04.62.12.94.04.18.15.44.33.77.23.41.34.7.34.87s-.07.31-.2.43-.3.18-.52.18c-.31,0-.57-.16-.76-.49-.27-.44-.4-1.06-.4-1.86,0-1.57.61-3.02,1.84-4.34,1.23-1.31,2.84-1.97,4.85-1.97h4.5c.5,0,1.05-.03,1.65-.09.18-.02.57-.1,1.16-.25-.4,1.63-.64,2.68-.71,3.13Z"/>
      <path class="st5" d="M304.77,453.14c.77,0,1.4.3,1.91.91s.76,1.46.76,2.54c0,1.73-.61,3.29-1.83,4.67s-2.51,2.07-3.87,2.07c-.84,0-1.51-.27-2.02-.82s-.77-1.29-.77-2.24c0-1.64.47-3.16,1.41-4.55,1.18-1.73,2.65-2.59,4.41-2.59ZM303.77,454.02c-.66,0-1.31.47-1.93,1.42s-.93,2.26-.93,3.93c0,1.02.19,1.82.57,2.4.28.43.66.64,1.12.64.66,0,1.25-.41,1.79-1.22.69-1.05,1.03-2.36,1.03-3.93,0-1.17-.16-2.01-.47-2.51s-.71-.75-1.19-.75Z"/>
      <path class="st5" d="M310.72,463h-1.75l.82-3.15c.4-1.55.75-3.02,1.04-4.41.07-.34.11-.56.11-.64,0-.19-.09-.28-.26-.28-.12,0-.3.08-.54.24s-.68.56-1.31,1.19l-.36-.41c.75-.8,1.5-1.41,2.24-1.81.75-.4,1.32-.6,1.72-.6.14,0,.25.03.33.1s.12.15.12.25-.05.37-.15.81l-.51,2.11c.79-1.25,1.68-2.31,2.68-3.2.48-.42.88-.63,1.2-.63.23,0,.43.08.59.23.16.15.23.33.23.53s-.08.39-.23.54-.53.32-1.14.53c-.58.2-1.05.43-1.41.7s-.76.69-1.19,1.25c-.43.56-.74,1.05-.91,1.47s-.43,1.39-.79,2.91l-.53,2.27Z"/>
      <path class="st5" d="M331.76,462.31l-.25.69c-.49.12-.9.19-1.24.19-.37,0-.85-.03-1.46-.09-.57-.06-1.03-.09-1.36-.09-.48,0-1.21.05-2.2.16l.2-.6c.73-.19,1.2-.39,1.38-.61s.5-1.15.94-2.81.66-2.74.66-3.26c0-1.05-.2-2.12-.61-3.22s-.91-1.99-1.52-2.67c-1.15.42-1.97.82-2.47,1.19s-.89.83-1.2,1.37-.45,1.01-.45,1.42.18.77.54,1.11c.3.3.46.56.46.79,0,.2-.06.37-.18.5s-.27.2-.45.2c-.32,0-.59-.16-.81-.47-.3-.43-.45-.95-.45-1.55,0-.87.24-1.68.73-2.45s1.16-1.41,2.03-1.92c.51-.3,1.34-.63,2.51-.97.43-.12.82-.25,1.16-.39.66.79,1.19,1.72,1.59,2.78s.67,2.39.82,3.97c1.45-3.05,2.83-5.2,4.15-6.44s2.38-1.86,3.21-1.86c.26,0,.47.07.63.22s.25.33.25.55-.1.41-.29.55-.57.23-1.12.27c-.55.04-.97.15-1.27.33-.59.36-1.28,1.02-2.07,2-.79.97-1.58,2.18-2.35,3.64-.78,1.46-1.36,2.97-1.77,4.54s-.62,2.6-.65,3.08c.37.06.73.09,1.09.09.55,0,1.15-.08,1.81-.23Z"/>
      <path class="st5" d="M340.27,453.14c.77,0,1.4.3,1.91.91s.76,1.46.76,2.54c0,1.73-.61,3.29-1.83,4.67s-2.51,2.07-3.87,2.07c-.84,0-1.51-.27-2.02-.82s-.77-1.29-.77-2.24c0-1.64.47-3.16,1.41-4.55,1.18-1.73,2.65-2.59,4.41-2.59ZM339.28,454.02c-.66,0-1.31.47-1.93,1.42s-.93,2.26-.93,3.93c0,1.02.19,1.82.57,2.4.28.43.66.64,1.12.64.66,0,1.25-.41,1.79-1.22.69-1.05,1.03-2.36,1.03-3.93,0-1.17-.16-2.01-.47-2.51s-.71-.75-1.19-.75Z"/>
      <path class="st5" d="M351.98,453.45h1.67l-1.1,4.1c-.65,2.38-.97,3.73-.97,4.06,0,.15.04.26.11.34s.15.12.23.12c.13,0,.29-.06.47-.18.26-.18.75-.63,1.46-1.36l.39.43c-1.57,1.63-2.73,2.45-3.47,2.45-.25,0-.46-.1-.64-.29s-.26-.46-.26-.81c0-.41.08-.95.25-1.63-.7.8-1.55,1.5-2.58,2.1-.68.4-1.27.6-1.77.6-.27,0-.49-.09-.64-.27s-.23-.47-.23-.86c0-.3.04-.63.11-.99.1-.49.36-1.48.77-2.97.52-1.88.79-3.02.79-3.39,0-.22-.08-.33-.23-.33-.14,0-.33.07-.57.22s-.66.49-1.24,1.05l-.52-.41c1.05-.94,1.85-1.55,2.4-1.85s.99-.44,1.33-.44c.19,0,.34.07.46.21.12.14.18.35.18.64,0,.54-.28,1.87-.84,3.98-.5,1.9-.75,2.98-.75,3.25,0,.16.05.31.16.42s.22.18.35.18c.44,0,1.06-.36,1.86-1.08.8-.72,1.33-1.54,1.58-2.47l1.28-4.82Z"/>
    </g>
  </g>
  <g class="st4">
    <path class="st5" d="M231.16,658.45l-.1.56c-.23.02-.44.03-.62.03-.25,0-.56-.02-.92-.06-.61-.07-1-.1-1.16-.1-.27,0-.69.04-1.26.13.2-.51.37-1.04.51-1.6.1-.4.2-1.08.31-2.05-.76,0-1.94,0-3.54.05-1.66,2.53-2.87,4.11-3.64,4.76s-1.51.97-2.2.97c-.36,0-.64-.07-.82-.21s-.27-.32-.27-.54c0-.17.05-.31.16-.42s.23-.17.39-.17c.09,0,.21.02.37.05.39.09.65.14.78.14.44,0,.92-.25,1.45-.74.86-.81,2.13-2.5,3.81-5.08,1.9-2.92,3.44-5.04,4.62-6.37-1.61.14-2.61.28-3,.41-.55.18-.96.44-1.23.78-.27.34-.41.7-.41,1.05,0,.12.04.28.13.5.09.24.14.42.14.53,0,.14-.06.27-.17.38s-.24.17-.4.17c-.22,0-.4-.08-.53-.25s-.2-.42-.2-.75c0-.47.12-.92.37-1.36s.59-.81,1.05-1.1,1.03-.52,1.71-.68c.35-.08.97-.16,1.86-.22.77-.07,1.25-.13,1.45-.19.31-.08.6-.25.88-.5-.2.8-.34,1.5-.42,2.1l-.76,5.64-.44,4.04c.48.12.91.19,1.3.19.25,0,.53-.03.83-.09ZM228.01,654.63c.31-2.64.62-4.57.94-5.79-.82,1.1-1.33,1.79-1.53,2.07l-2.51,3.72c.54.02,1.31.03,2.31.03.25,0,.51,0,.79-.03Z"/>
    <path class="st5" d="M238.74,651.69c-.59.16-1.14.24-1.63.24-.27,0-.58-.02-.91-.05-.46-.05-.77-.08-.93-.08-.2,0-.35.05-.45.14s-.16.21-.16.35c0,.22.12.34.35.36.29.03.44.17.44.4,0,.11-.05.21-.14.3s-.2.13-.31.13c-.23,0-.45-.12-.65-.35s-.3-.52-.3-.86c0-.44.19-.82.56-1.14s.83-.48,1.38-.48c.29,0,.67.04,1.16.12.79.12,1.35.19,1.7.19s.68-.12.99-.35c.14-.1.26-.16.35-.16.08,0,.15.02.2.07s.08.1.08.14c0,.07-.04.14-.11.22-.22.27-.73.79-1.51,1.54l-3.03,2.9c-.89.85-1.62,1.53-2.21,2.05.37-.04.66-.06.87-.06.29,0,.56.02.8.07s.63.16,1.16.34c.7.24,1.26.36,1.7.36.27,0,.48-.06.63-.19s.22-.29.22-.48c0-.11-.05-.27-.16-.47-.09-.2-.14-.34-.14-.45,0-.16.05-.29.16-.4s.23-.17.39-.17c.19,0,.35.08.47.23s.19.35.19.59c0,.37-.13.75-.4,1.15s-.6.71-1.01.93-.9.32-1.49.32c-.49,0-1.2-.14-2.14-.42-.78-.23-1.35-.34-1.72-.34-.22,0-.48.12-.77.35-.17.15-.32.22-.44.22-.24,0-.36-.06-.36-.18s.07-.25.21-.41c.36-.43,1.29-1.32,2.77-2.66,1-.91,1.88-1.74,2.64-2.49l1.53-1.52Z"/>
    <path class="st5" d="M247.97,650.92h1.39l-.92,3.41c-.54,1.98-.81,3.11-.81,3.38,0,.12.03.22.09.28s.12.1.2.1c.11,0,.24-.05.39-.15.21-.15.62-.53,1.22-1.13l.32.36c-1.31,1.36-2.27,2.04-2.89,2.04-.21,0-.39-.08-.53-.24s-.22-.39-.22-.68c0-.34.07-.79.21-1.36-.58.66-1.29,1.25-2.15,1.75-.57.33-1.06.5-1.47.5-.23,0-.41-.08-.54-.22-.13-.15-.2-.39-.2-.71,0-.25.03-.53.09-.82.08-.41.3-1.24.64-2.47.44-1.57.65-2.51.65-2.83,0-.18-.06-.27-.2-.27-.12,0-.28.06-.48.18s-.55.41-1.04.87l-.43-.34c.87-.78,1.54-1.29,2-1.54s.83-.37,1.11-.37c.16,0,.28.06.38.17s.15.29.15.53c0,.45-.23,1.55-.7,3.32-.42,1.58-.62,2.49-.62,2.71,0,.14.04.25.13.35.09.1.18.15.29.15.36,0,.88-.3,1.55-.9s1.11-1.29,1.32-2.06l1.06-4.01Z"/>
    <path class="st5" d="M252.38,658.88h-1.46l.68-2.63c.33-1.29.62-2.51.87-3.67.06-.29.09-.47.09-.54,0-.16-.07-.23-.21-.23-.1,0-.25.07-.45.2s-.57.46-1.09.99l-.3-.34c.62-.67,1.25-1.17,1.87-1.51.62-.33,1.1-.5,1.43-.5.12,0,.21.03.28.08s.1.12.1.21-.04.31-.13.68l-.42,1.76c.66-1.04,1.4-1.93,2.23-2.67.4-.35.73-.53,1-.53.2,0,.36.06.49.19s.2.28.2.44-.06.33-.19.45-.44.27-.95.44c-.48.16-.87.36-1.18.59-.3.23-.63.58-1,1.05-.36.47-.61.88-.76,1.23-.14.35-.36,1.16-.66,2.43l-.44,1.89Z"/>
    <path class="st5" d="M261.68,656.43l.32.43c-1.6,1.52-2.96,2.28-4.1,2.28-.46,0-.82-.16-1.06-.47s-.37-.81-.37-1.5c0-1.39.42-2.78,1.27-4.16.95-1.57,2.09-2.35,3.41-2.35.46,0,.82.12,1.06.35s.37.55.37.95-.15.84-.44,1.25-.82.84-1.57,1.28c-.38.21-1.19.6-2.42,1.16-.06.35-.09.69-.09,1.01,0,.46.07.78.22.97s.36.27.64.27.56-.08.88-.22c.43-.2,1.06-.61,1.88-1.23ZM258.26,655.02c1.05-.47,1.84-.97,2.36-1.51.36-.38.54-.75.54-1.12,0-.28-.07-.5-.22-.67s-.34-.25-.57-.25-.48.09-.7.27c-.31.24-.56.61-.77,1.09-.3.72-.51,1.45-.63,2.19Z"/>
    <path class="st5" d="M280.13,658.33l-.14.56c-.45.1-.82.15-1.1.15s-.73-.03-1.36-.09c-.48-.04-.9-.06-1.28-.06-.65,0-1.32.06-2.01.18l.14-.54c.66-.07,1.14-.2,1.44-.41.21-.15.4-.41.55-.77s.5-1.62,1.04-3.78l1.25-5.18.07-.24c-.38-.02-.67-.03-.87-.03-1.2,0-2.16.13-2.87.39s-1.24.64-1.59,1.13c-.35.5-.53,1.03-.53,1.6,0,.2.04.39.11.56.05.12.2.31.43.57.22.24.33.46.33.67,0,.18-.06.33-.2.45s-.29.19-.47.19c-.27,0-.49-.13-.66-.39-.25-.38-.37-.87-.37-1.46,0-.79.25-1.57.74-2.31s1.17-1.33,2.03-1.74,1.9-.62,3.13-.62c.59,0,1.52.08,2.8.25.91.12,1.57.18,1.98.18s.7-.07.87-.21.25-.32.25-.55c0-.05,0-.14-.03-.27-.02-.12-.03-.21-.03-.24,0-.18.06-.32.18-.44s.26-.18.42-.18c.2,0,.36.07.48.21s.19.33.19.58c0,.5-.26.92-.79,1.28s-1.41.54-2.64.54c-.44,0-.91-.02-1.41-.06-.07.23-.27,1.03-.62,2.38l-.85,3.38-.52,2.06-.54,2.35c.44.05.8.08,1.08.08.44,0,.89-.06,1.37-.17Z"/>
    <path class="st5" d="M288.81,650.5l.64-.14-.73,2.47c-.29.98-.57,2.12-.83,3.4-.14.7-.21,1.15-.21,1.35s.08.3.24.3c.1,0,.27-.07.5-.21.4-.24.79-.54,1.16-.9l.31.38c-.74.68-1.22,1.09-1.43,1.23-.42.29-.81.5-1.19.63-.25.09-.49.14-.72.14-.17,0-.3-.04-.38-.12s-.13-.19-.13-.34c0-.1.03-.23.08-.4l.39-1.33c-.56.67-1.23,1.25-2,1.73-.48.3-.91.45-1.31.45s-.67-.13-.87-.4c-.27-.36-.41-.83-.41-1.41,0-.69.18-1.46.55-2.3s.86-1.61,1.48-2.3,1.27-1.2,1.95-1.52c.53-.25,1.2-.37,2.03-.37.21,0,.42.01.63.04l.23-.38ZM287.6,652c-.35-.07-.65-.11-.89-.11-.59,0-1.1.16-1.53.48s-.84.9-1.22,1.74-.56,1.67-.56,2.5c0,.44.07.76.22.96s.35.29.59.29c.45,0,.93-.24,1.45-.73s.89-1.18,1.13-2.09l.81-3.05Z"/>
    <path class="st5" d="M290.84,652.97l-.33-.34c.83-.8,1.5-1.33,1.99-1.59.5-.26.92-.39,1.27-.39.14,0,.24.03.32.09s.12.13.12.21c0,.06-.02.16-.05.31l-.44,1.96c.66-.74,1.49-1.42,2.5-2.06.53-.33.97-.5,1.32-.5.25,0,.45.08.59.24.14.16.21.4.21.7,0,.2-.03.43-.09.68-.1.42-.38,1.34-.82,2.76-.42,1.33-.62,2.21-.62,2.65,0,.13.02.23.06.3.04.07.09.1.17.1.19,0,.48-.18.89-.55.29-.26.57-.5.86-.72l.24.35c-.6.66-1.22,1.19-1.87,1.59-.41.26-.75.39-1.02.39-.25,0-.44-.09-.58-.27s-.21-.47-.21-.87c0-.58.36-2.02,1.08-4.33.22-.82.33-1.3.33-1.44,0-.2-.12-.3-.36-.3-.26,0-.6.14-1.01.41-.61.4-1.12.88-1.53,1.43-.26.35-.48.91-.65,1.68l-.79,3.41h-1.46c.27-.98.51-1.91.71-2.81l.87-3.72c.03-.15.05-.26.05-.32,0-.18-.06-.26-.2-.26-.1,0-.25.07-.45.21-.4.27-.78.6-1.13.98Z"/>
    <path class="st5" d="M305.92,651.69c-.59.16-1.14.24-1.63.24-.27,0-.58-.02-.91-.05-.46-.05-.77-.08-.93-.08-.2,0-.35.05-.45.14-.1.09-.16.21-.16.35,0,.22.12.34.35.36.29.03.44.17.44.4,0,.11-.05.21-.14.3-.09.09-.2.13-.31.13-.23,0-.45-.12-.65-.35-.2-.23-.3-.52-.3-.86,0-.44.19-.82.56-1.14s.83-.48,1.38-.48c.29,0,.67.04,1.16.12.79.12,1.35.19,1.7.19s.68-.12.99-.35c.14-.1.26-.16.35-.16.08,0,.14.02.2.07.05.05.08.1.08.14,0,.07-.04.14-.11.22-.22.27-.73.79-1.51,1.54l-3.03,2.9c-.89.85-1.62,1.53-2.21,2.05.37-.04.66-.06.87-.06.29,0,.56.02.8.07.24.05.63.16,1.16.34.7.24,1.26.36,1.7.36.27,0,.48-.06.63-.19s.22-.29.22-.48c0-.11-.05-.27-.16-.47-.09-.2-.14-.34-.14-.45,0-.16.05-.29.16-.4.1-.11.23-.17.39-.17.19,0,.35.08.47.23s.19.35.19.59c0,.37-.13.75-.4,1.15-.27.4-.6.71-1.01.93-.4.22-.9.32-1.49.32-.49,0-1.2-.14-2.14-.42-.78-.23-1.35-.34-1.72-.34-.22,0-.48.12-.77.35-.17.15-.32.22-.44.22-.24,0-.36-.06-.36-.18s.07-.25.21-.41c.36-.43,1.29-1.32,2.77-2.66,1-.91,1.88-1.74,2.64-2.49l1.53-1.52Z"/>
    <path class="st5" d="M308.52,652.66l-.31-.46.72-.49c.7-.48,1.2-.79,1.48-.93.16-.08.31-.12.45-.12s.27.08.39.23c.57.72,1.05,1.7,1.45,2.92.39,1.23.59,2.42.59,3.57,0,.15,0,.38-.02.68,1.1-2.03,1.65-3.63,1.65-4.83,0-.25-.06-.58-.17-.99-.12-.46-.18-.78-.18-.98s.06-.34.18-.47c.12-.12.27-.19.45-.19.23,0,.41.09.55.26.14.18.21.43.21.75,0,.84-.19,1.89-.58,3.14-.38,1.25-.99,2.6-1.81,4.04-.82,1.44-1.58,2.51-2.26,3.21-.68.7-1.34,1.2-1.97,1.5s-1.24.45-1.8.45c-.43,0-.75-.08-.97-.24-.22-.16-.33-.35-.33-.57,0-.2.08-.36.25-.5.17-.14.4-.21.68-.21.22,0,.52.04.91.13.41.09.69.14.84.14.4,0,.82-.17,1.26-.5.61-.46,1.08-1,1.44-1.63.35-.63.53-1.27.53-1.91,0-.9-.13-1.99-.4-3.26s-.64-2.24-1.12-2.91c-.24-.34-.5-.52-.77-.52-.32,0-.78.21-1.37.64Z"/>
  </g>
  <g class="st4">
    <path class="st5" d="M247.92,674.5l-.5-.24c.51-1.02,1.05-1.73,1.6-2.12s1.17-.59,1.85-.59c.82,0,1.47.26,1.96.78s.73,1.13.73,1.83c0,.43-.09.87-.26,1.31s-.47.9-.87,1.39c-.26.32-.98.98-2.15,1.98-1.58,1.37-2.68,2.47-3.32,3.31.85-.04,1.73-.06,2.64-.06.29,0,.55,0,.76,0,.48.02.8-.03.98-.14s.47-.48.87-1.11h.67c-.53.73-.99,1.62-1.38,2.69-.46-.08-.95-.15-1.46-.19s-1.05-.06-1.62-.06c-.67,0-1.66.04-2.96.13l.2-.62c.59-.88,1.48-1.87,2.66-2.98,1.17-1.09,1.92-1.86,2.26-2.3.49-.63.84-1.23,1.06-1.79.17-.42.25-.82.25-1.21,0-.59-.16-1.06-.48-1.41-.32-.35-.71-.53-1.18-.53-.39,0-.77.14-1.15.42s-.76.79-1.16,1.51Z"/>
    <path class="st5" d="M259.65,671.56c.93,0,1.68.34,2.24,1.03s.84,1.71.84,3.07c0,1.94-.49,3.74-1.46,5.4s-2.15,2.5-3.54,2.5c-.81,0-1.5-.36-2.07-1.07s-.84-1.68-.84-2.9c0-1.44.28-2.85.84-4.23s1.19-2.36,1.89-2.93c.7-.58,1.4-.87,2.09-.87ZM259.47,672.14c-.4,0-.82.27-1.24.81-.42.54-.81,1.52-1.16,2.95-.35,1.43-.53,2.79-.53,4.09,0,1.04.15,1.8.45,2.28.3.48.65.71,1.04.71.35,0,.69-.17,1.03-.52.5-.52.95-1.48,1.36-2.91s.61-2.86.61-4.3c0-1.11-.17-1.95-.51-2.5-.25-.41-.6-.62-1.04-.62Z"/>
    <path class="st5" d="M268.45,671.56c.93,0,1.68.34,2.24,1.03s.84,1.71.84,3.07c0,1.94-.49,3.74-1.46,5.4s-2.15,2.5-3.54,2.5c-.81,0-1.5-.36-2.07-1.07s-.84-1.68-.84-2.9c0-1.44.28-2.85.84-4.23s1.19-2.36,1.89-2.93c.7-.58,1.4-.87,2.09-.87ZM268.27,672.14c-.4,0-.82.27-1.24.81-.42.54-.81,1.52-1.16,2.95-.35,1.43-.53,2.79-.53,4.09,0,1.04.15,1.8.45,2.28.3.48.65.71,1.04.71.35,0,.69-.17,1.03-.52.5-.52.95-1.48,1.36-2.91s.61-2.86.61-4.3c0-1.11-.17-1.95-.51-2.5-.25-.41-.6-.62-1.04-.62Z"/>
  </g>
  <g class="st4">
    <path class="st5" d="M283.99,683.69l-.77-10.52c-.17,1.77-.48,3.42-.94,4.96-.46,1.53-.97,2.72-1.55,3.55-.58.84-1.17,1.42-1.78,1.76s-1.21.51-1.8.51c-.36,0-.63-.07-.83-.22-.19-.15-.29-.32-.29-.53,0-.18.07-.33.21-.46.14-.13.32-.2.53-.2.16,0,.38.03.67.1.27.07.49.1.66.1.31,0,.62-.11.96-.34.5-.34,1-.94,1.49-1.82.49-.88.93-2.09,1.32-3.66.39-1.56.63-3.09.73-4.58-1.48,0-2.68.37-3.6,1.1-.74.59-1.1,1.24-1.1,1.96,0,.32.17.7.52,1.15.19.24.28.44.28.59,0,.17-.05.31-.16.42-.11.11-.23.17-.38.17-.25,0-.48-.14-.67-.43-.26-.38-.4-.84-.4-1.37,0-.74.25-1.45.75-2.13s1.19-1.2,2.07-1.55c.88-.35,1.92-.54,3.1-.54.64,0,1.15-.06,1.53-.18-.02.59-.03.9-.03.95,0,.06,0,.19.03.4l.57,7.44c1.58-2.75,3.11-5.01,4.62-6.78,1.07-1.26,2-2.11,2.79-2.55-.45,1.24-.94,2.87-1.45,4.89l-1.2,4.69c-.07.26-.15.64-.27,1.14l-.24,1.04c.5.12.95.18,1.36.18.33,0,.69-.04,1.07-.12l-.13.57c-.33.06-.59.09-.77.09-.27,0-.65-.03-1.15-.09-.41-.05-.77-.08-1.09-.08-.34,0-.72.07-1.15.2.36-.94.73-2.2,1.13-3.78l.75-2.99c.32-1.29.6-2.17.83-2.66-.52.59-1.33,1.68-2.42,3.27-.88,1.28-1.85,2.89-2.94,4.85l-.85,1.5Z"/>
    <path class="st5" d="M292.54,683.44l.12-.53c.68-.13,1.14-.28,1.37-.45.23-.17.44-.47.62-.9s.44-1.33.76-2.68c.42-1.79.81-3.08,1.15-3.87.53-1.18,1.18-2.06,1.97-2.64.78-.57,1.58-.86,2.38-.86.51,0,.95.13,1.3.39s.53.53.53.81c0,.16-.05.29-.16.4s-.24.17-.39.17c-.19,0-.43-.13-.71-.38-.31-.27-.55-.45-.73-.54-.17-.08-.34-.13-.5-.13-.19,0-.37.05-.56.16-.25.14-.53.42-.81.82s-.59.99-.9,1.78c-.2.53-.46,1.41-.77,2.64-.49,1.95-.86,3.24-1.12,3.88-.18.46-.4.83-.66,1.13.93-.2,1.67-.3,2.23-.3.34,0,.66.02.96.06s.8.15,1.53.32c.63.15,1.07.22,1.33.22s.46-.08.63-.23c.17-.15.26-.33.26-.52,0-.12-.05-.3-.14-.52-.08-.21-.13-.38-.13-.5,0-.18.05-.32.16-.42.1-.1.24-.15.41-.15.2,0,.36.09.5.26s.21.41.21.71c0,.57-.23,1.05-.7,1.46s-1.1.62-1.9.62c-.4,0-.91-.03-1.53-.09-2.11-.19-3.49-.28-4.14-.28-.96,0-1.8.06-2.54.17Z"/>
  </g>
</svg>