<?xml version="1.0" encoding="UTF-8"?>
<svg id="Layer_1" xmlns="http://www.w3.org/2000/svg" version="1.1" viewBox="0 0 595.28 841.89">
  <!-- Generator: Adobe Illustrator 29.4.0, SVG Export Plug-In . SVG Version: 2.1.0 Build 152)  -->
  <defs>
    <style>
      .st0 {
        fill: #ddccc0;
      }

      .st0, .st1, .st2, .st3, .st4 {
        stroke-miterlimit: 10;
      }

      .st0, .st4 {
        stroke: #020202;
      }

      .st1, .st3 {
        stroke: #9a5330;
      }

      .st1, .st4 {
        fill: none;
      }

      .st2 {
        fill: #fff;
        stroke: #231f20;
      }

      .st5 {
        fill: #9a5330;
      }

      .st6, .st3 {
        fill: #d7b792;
      }

      .st7 {
        isolation: isolate;
      }
    </style>
  </defs>
  <path class="st2" d="M350.06,285.21"/>
  <polygon class="st5" points="419.6 242.28 478.63 303.53 478.63 721.02 418.29 774.21 163.42 773.21 109.25 724.48 108.23 305.14 164.84 242.28 419.6 242.28"/>
  <path class="st4" d="M-110.94,413.14"/>
  <path class="st4" d="M506.94,242.28"/>
  <path class="st4" d="M27.31,2.79"/>
  <g>
    <polygon class="st3" points="227.83 59.32 357.23 59.32 382.3 98.81 351.89 165.58 356.42 167.32 356.42 184.25 349.95 197.14 356.42 212.46 366.93 232.6 368.55 242.28 215.7 242.28 218.93 238.25 226.21 217.29 235.11 205.2 235.92 197.14 231.87 185.86 230.25 176.99 231.87 171.35 238.34 168.13 201.95 100.43 227.83 59.32"/>
    <path class="st1" d="M231.65,185.86c15.96,2.78,34.95,4.9,56.34,4.99,26.34.11,49.26-2.89,67.71-6.6"/>
    <path class="st1" d="M355.7,212.32c-16.17,4.62-38.25,9.24-64.71,9.96-26.24.71-48.39-2.65-64.71-6.35"/>
    <polyline class="st1" points="201.23 100.43 223.74 93.17 253.8 93.17 329.02 93.17 350.85 93.17 381.58 98.81"/>
    <path class="st1" d="M359.24,217.64c-16.77,4.68-39.67,9.37-67.12,10.09-27.22.72-50.19-2.69-67.12-6.43"/>
    <path class="st1" d="M234.66,195.02c15.08,2.78,33.02,4.9,53.24,4.99,24.89.11,46.55-2.89,63.98-6.6"/>
    <path class="st1" d="M237.63,168.13c11.23,3.87,29.15,8.52,51.45,7.95,25.2-.65,51.13-5.27,62.49-10.37"/>
  </g>
  <path class="st0" d="M394.75,166.67"/>
  <polygon class="st6" points="167.43 254.21 418.56 254.21 466.46 303.21 466.46 707.21 421.3 759.21 167.43 759.21 122.28 709.21 122.28 305.21 167.43 254.21"/>
  <g class="st7">
    <g class="st7">
      <g class="st7">
        <path class="st5" d="M214.59,422.75l-1.37-1.41c2.13-2.55,4.25-4.44,6.36-5.66s3.94-1.83,5.48-1.83c.59,0,1.05.15,1.39.44.34.29.51.72.51,1.28,0,.68-.08,1.38-.23,2.09-.15.71-.63,2.41-1.42,5.08,3.59-3.59,6.03-5.8,7.35-6.64,2.2-1.43,4.22-2.14,6.05-2.14,1.2,0,2.2.56,3.02,1.69.82,1.12,1.23,2.82,1.23,5.1,0,5.67-1.77,11.06-5.3,16.17s-7.45,7.66-11.73,7.66c-1.69,0-3.37-.46-5.06-1.37l-3,11.6c-.19.7-.28,1.28-.28,1.72,0,.87.33,1.49.98,1.86,1.01.59,3.13,1.07,6.36,1.44l-.46,1.76c-3.77-.3-6.74-.46-8.89-.46s-5.11.15-8.65.46l.46-1.76c1.78-.19,3.08-.68,3.88-1.48s1.46-2.21,1.95-4.25l6.36-26.68c1.2-4.97,1.79-7.73,1.79-8.3,0-.61-.29-.91-.88-.91-1.03,0-3,1.51-5.91,4.54ZM221.72,439.35c1.85,1.85,3.75,2.78,5.69,2.78,2.81,0,5.27-2.19,7.39-6.57s3.18-8.66,3.18-12.83c0-1.34-.3-2.35-.9-3.04-.6-.69-1.4-1.04-2.4-1.04-1.12,0-2.39.55-3.79,1.65-2.18,1.71-3.84,3.41-4.98,5.1-.82,1.22-1.59,3.33-2.32,6.33l-1.87,7.63Z"/>
        <path class="st5" d="M264.17,434.78l1.16,1.55c-5.74,5.46-10.66,8.19-14.77,8.19-1.66,0-2.94-.56-3.81-1.69s-1.32-2.93-1.32-5.41c0-5.02,1.52-10.01,4.57-14.98,3.42-5.65,7.51-8.47,12.27-8.47,1.66,0,2.94.42,3.81,1.25s1.32,1.97,1.32,3.43-.53,3.02-1.58,4.5-2.94,3.01-5.66,4.61c-1.36.77-4.27,2.17-8.72,4.18-.21,1.27-.32,2.47-.32,3.62,0,1.66.26,2.82.79,3.48s1.29.98,2.3.98,2.02-.27,3.16-.81c1.55-.73,3.81-2.2,6.79-4.43ZM251.86,429.68c3.77-1.69,6.61-3.5,8.51-5.45,1.29-1.36,1.93-2.71,1.93-4.04,0-1.01-.26-1.81-.79-2.41s-1.21-.9-2.06-.9-1.71.33-2.53.98c-1.1.87-2.03,2.18-2.78,3.94-1.08,2.58-1.84,5.2-2.29,7.88Z"/>
        <path class="st5" d="M280.06,408.62l5.58-2.14-2.53,9.84h7.28l-.56,2.5h-7.29l-3.07,11.78c-.97,3.54-1.46,6-1.46,7.38,0,.63.13,1.09.4,1.37.27.28.64.42,1.11.42.73,0,1.84-.43,3.34-1.3,1.97-1.15,3.84-2.45,5.62-3.9l1.34,1.62c-5.13,3.87-8.57,6.23-10.3,7.1-1.73.87-3.13,1.3-4.18,1.3-.87,0-1.55-.32-2.06-.95-.5-.63-.76-1.66-.76-3.09,0-1.69.44-4.27,1.34-7.73l3.58-13.99h-5.7l.63-2.5h5.7l1.97-7.7Z"/>
        <path class="st5" d="M317.22,413.44l2.32-.49-2.64,8.89c-1.05,3.54-2.05,7.62-2.99,12.23-.52,2.51-.77,4.12-.77,4.85s.29,1.09.88,1.09c.37,0,.97-.25,1.79-.74,1.45-.87,2.85-1.95,4.18-3.23l1.12,1.37c-2.67,2.44-4.38,3.91-5.13,4.43-1.5,1.03-2.93,1.79-4.29,2.29-.89.33-1.76.49-2.6.49-.61,0-1.07-.14-1.37-.42-.3-.28-.46-.69-.46-1.23,0-.35.09-.83.28-1.44l1.41-4.78c-2.02,2.41-4.42,4.49-7.21,6.22-1.71,1.08-3.28,1.62-4.71,1.62s-2.4-.48-3.13-1.44c-.98-1.29-1.48-2.98-1.48-5.06,0-2.48.66-5.25,1.99-8.3,1.32-3.05,3.1-5.81,5.33-8.3,2.23-2.48,4.57-4.31,7.03-5.48,1.9-.89,4.34-1.34,7.31-1.34.75,0,1.51.05,2.29.14l.84-1.37ZM312.86,418.81c-1.27-.26-2.33-.39-3.2-.39-2.11,0-3.95.58-5.52,1.74-1.57,1.16-3.03,3.25-4.38,6.26-1.35,3.01-2.02,6.02-2.02,9.02,0,1.59.27,2.74.81,3.45.54.7,1.24,1.05,2.11,1.05,1.62,0,3.35-.87,5.2-2.62,1.85-1.75,3.21-4.26,4.08-7.54l2.92-10.97Z"/>
        <path class="st5" d="M338.1,435.13l1.2,1.27c-1.83,2.06-3.99,3.94-6.49,5.64s-4.55,2.55-6.17,2.55c-.73,0-1.32-.28-1.79-.83-.47-.55-.7-1.31-.7-2.27,0-1.88.73-5.77,2.18-11.67l3.79-15.43c1.38-5.58,2.54-9.32,3.48-11.21,1.45-2.87,3.51-5.1,6.16-6.69,2.66-1.59,5.46-2.38,8.41-2.38,1.01,0,1.8.24,2.37.73.57.48.86,1.07.86,1.75,0,.76-.28,1.38-.84,1.86-.56.48-1.38.73-2.45.73-.7,0-1.69-.12-2.98-.35-1.12-.19-2.16-.28-3.12-.28s-1.68.2-2.17.59c-.68.56-1.29,1.74-1.84,3.53-.55,1.8-1.44,5.34-2.68,10.64l-3.51,14.73c-1.73,7.38-2.6,11.24-2.6,11.57,0,.75.27,1.12.81,1.12s1.27-.3,2.25-.91c1.95-1.22,3.89-2.78,5.84-4.68Z"/>
        <path class="st5" d="M341.86,422.19l-1.55-1.2c2.34-2.58,4.48-4.41,6.41-5.5s3.58-1.63,4.93-1.63c.75,0,1.32.16,1.72.49.4.33.6.77.6,1.34,0,.68-.76,3.56-2.28,8.65-2.48,8.32-3.72,13.34-3.72,15.05,0,.33.08.6.25.83.16.22.34.33.53.33.75,0,2.67-1.45,5.77-4.36l1.37,1.34c-3.21,3.02-5.55,4.96-7.03,5.8s-2.68,1.27-3.62,1.27c-.82,0-1.47-.26-1.95-.77-.48-.52-.72-1.23-.72-2.14,0-2.93,1.76-10.09,5.27-21.48.16-.54.25-1.02.25-1.44,0-.47-.21-.7-.63-.7-.47,0-1,.19-1.6.56s-1.93,1.57-3.99,3.59ZM355.68,398.92c.73,0,1.32.24,1.79.72.47.48.7,1.1.7,1.85,0,1.03-.36,1.94-1.07,2.72-.72.79-1.52,1.18-2.41,1.18-.7,0-1.29-.25-1.76-.74-.47-.49-.7-1.14-.7-1.93,0-1.05.34-1.95,1.02-2.69.68-.74,1.49-1.11,2.43-1.11Z"/>
        <path class="st5" d="M381.97,413.44l2.32-.49-2.64,8.89c-1.05,3.54-2.05,7.62-2.99,12.23-.52,2.51-.77,4.12-.77,4.85s.29,1.09.88,1.09c.37,0,.97-.25,1.79-.74,1.45-.87,2.85-1.95,4.18-3.23l1.12,1.37c-2.67,2.44-4.38,3.91-5.13,4.43-1.5,1.03-2.93,1.79-4.29,2.29-.89.33-1.76.49-2.6.49-.61,0-1.07-.14-1.37-.42-.3-.28-.46-.69-.46-1.23,0-.35.09-.83.28-1.44l1.41-4.78c-2.02,2.41-4.42,4.49-7.21,6.22-1.71,1.08-3.28,1.62-4.71,1.62s-2.4-.48-3.13-1.44c-.98-1.29-1.48-2.98-1.48-5.06,0-2.48.66-5.25,1.99-8.3,1.32-3.05,3.1-5.81,5.33-8.3,2.23-2.48,4.57-4.31,7.03-5.48,1.9-.89,4.34-1.34,7.31-1.34.75,0,1.51.05,2.29.14l.84-1.37ZM377.61,418.81c-1.27-.26-2.33-.39-3.2-.39-2.11,0-3.95.58-5.52,1.74-1.57,1.16-3.03,3.25-4.38,6.26-1.35,3.01-2.02,6.02-2.02,9.02,0,1.59.27,2.74.81,3.45.54.7,1.24,1.05,2.11,1.05,1.62,0,3.35-.87,5.2-2.62,1.85-1.75,3.21-4.26,4.08-7.54l2.92-10.97Z"/>
      </g>
    </g>
  </g>
  <g class="st7">
    <g class="st7">
      <g class="st7">
        <path class="st5" d="M212.16,479.54l-.16.67c-.54.12-.98.18-1.32.18s-.87-.04-1.63-.11c-.57-.05-1.08-.07-1.54-.07-.78,0-1.59.07-2.41.21l.16-.64c.79-.08,1.36-.24,1.72-.49.26-.18.48-.49.66-.92s.6-1.95,1.25-4.54l1.5-6.21.08-.29c-.46-.02-.81-.04-1.04-.04-1.45,0-2.59.16-3.44.47s-1.48.77-1.91,1.36-.64,1.24-.64,1.93c0,.24.04.47.13.67.06.14.23.37.52.68.27.29.4.56.4.8,0,.21-.08.39-.23.54-.16.15-.34.22-.56.22-.33,0-.59-.16-.8-.47-.3-.46-.45-1.05-.45-1.76,0-.95.29-1.88.88-2.78s1.4-1.59,2.43-2.09,2.29-.74,3.76-.74c.7,0,1.82.1,3.36.3,1.09.14,1.89.21,2.38.21s.84-.08,1.04-.25.3-.38.3-.66c0-.05-.01-.16-.04-.33-.02-.15-.04-.25-.04-.29,0-.21.07-.39.21-.53s.31-.21.5-.21c.23,0,.43.09.58.26s.23.4.23.69c0,.59-.32,1.11-.95,1.54-.63.43-1.69.64-3.17.64-.53,0-1.1-.02-1.7-.07-.08.28-.33,1.23-.74,2.86l-1.02,4.05-.62,2.47-.65,2.82c.52.06.96.09,1.3.09.52,0,1.07-.07,1.64-.2Z"/>
        <path class="st5" d="M224,477.73l.3.43c-.72.8-1.46,1.43-2.21,1.9-.52.32-.94.48-1.28.48-.27,0-.49-.11-.66-.33s-.25-.56-.25-1.02c0-.31.06-.77.19-1.37s.49-1.88,1.1-3.85c.27-.97.4-1.54.4-1.7,0-.25-.13-.38-.4-.38-.33,0-.74.16-1.23.49-.69.45-1.3,1.03-1.83,1.73-.34.45-.61,1.11-.81,2l-.92,4.09h-1.75c.38-1.37.66-2.48.87-3.35l1.72-7.52c.31-1.39.72-2.46,1.24-3.21.51-.75,1.18-1.35,2-1.79s1.64-.67,2.44-.67c.34,0,.6.08.8.25.2.17.29.38.29.63,0,.21-.1.4-.29.56-.19.16-.45.24-.78.24-.19,0-.43-.02-.73-.06-.67-.1-1.14-.15-1.4-.15-.36,0-.65.15-.88.44-.23.29-.46.97-.7,2.05l-1.31,5.78c.93-.97,1.94-1.8,3.04-2.47.64-.4,1.16-.6,1.55-.6.31,0,.54.09.72.27.17.18.26.43.26.75,0,.27-.03.53-.09.8-.1.46-.34,1.3-.72,2.51-.51,1.67-.81,2.71-.9,3.12-.09.41-.14.77-.14,1.09,0,.12.02.22.06.28s.11.09.19.09c.19,0,.54-.22,1.05-.67.29-.24.64-.53,1.05-.87Z"/>
        <path class="st5" d="M231.29,477.27l.39.52c-1.91,1.82-3.55,2.73-4.92,2.73-.55,0-.98-.19-1.27-.56s-.44-.98-.44-1.8c0-1.67.51-3.34,1.52-4.99,1.14-1.88,2.5-2.82,4.09-2.82.55,0,.98.14,1.27.42s.44.66.44,1.14-.18,1.01-.53,1.5-.98,1-1.89,1.54c-.45.26-1.42.72-2.91,1.39-.07.42-.11.82-.11,1.21,0,.55.09.94.26,1.16s.43.33.77.33.67-.09,1.05-.27c.52-.24,1.27-.73,2.26-1.48ZM227.19,475.57c1.26-.56,2.2-1.17,2.84-1.82.43-.45.64-.9.64-1.35,0-.34-.09-.6-.26-.8s-.4-.3-.69-.3-.57.11-.84.33c-.37.29-.68.73-.93,1.31-.36.86-.61,1.73-.76,2.62Z"/>
        <path class="st5" d="M251.91,468.98h-.62c.06-.4.09-.71.09-.95,0-.31-.13-.52-.39-.62s-1.25-.15-2.96-.15h-1.71s-1.29,5.18-1.29,5.18h2.42c.76,0,1.23-.06,1.41-.17s.3-.4.38-.85h.67c-.25.95-.47,1.98-.67,3.12h-.6c.04-.37.06-.65.06-.86,0-.09-.05-.19-.16-.32-.05-.06-.16-.11-.3-.13-.21-.04-.54-.06-.99-.06h-2.4c-.69,2.65-1.41,4.73-2.16,6.24.73-.23,1.37-.34,1.94-.34.94,0,2.09.15,3.45.45.72.16,1.21.25,1.47.25.34,0,.62-.09.83-.26.21-.17.32-.37.32-.58,0-.12-.05-.33-.16-.61-.07-.2-.1-.38-.1-.55s.07-.34.22-.48.32-.21.52-.21c.24,0,.44.09.6.28s.24.44.24.75c0,.66-.29,1.25-.87,1.75-.58.5-1.35.75-2.3.75-.5,0-1.13-.04-1.9-.13-1.68-.19-2.96-.28-3.85-.28-1.16,0-2.51.09-4.06.28l.19-.65c.93-.26,1.47-.44,1.64-.56s.3-.3.41-.53c.37-.74.86-2.23,1.46-4.46.6-2.23,1.2-4.59,1.82-7.07-.94,0-1.83.22-2.66.67s-1.49,1.02-1.96,1.74c-.47.71-.7,1.46-.7,2.25,0,.33.03.63.1.88.07.25.22.6.45,1.05.15.27.22.5.22.67s-.07.32-.22.46c-.14.13-.32.2-.53.2-.3,0-.54-.15-.72-.46-.26-.45-.4-1.05-.4-1.82,0-1.64.62-3.11,1.86-4.42s3.05-1.96,5.43-1.96h4.02c1.39,0,2.42-.09,3.08-.27-.31,1.3-.51,2.23-.6,2.78Z"/>
        <path class="st5" d="M258.6,470.35c.7,0,1.23.13,1.61.4s.57.58.57.93c0,.21-.08.39-.24.55s-.35.23-.58.23c-.15,0-.28-.03-.39-.1s-.27-.23-.47-.5c-.38-.51-.76-.76-1.14-.76-.32,0-.6.12-.85.37-.25.25-.37.55-.37.92,0,.32.08.63.23.93.16.3.55.79,1.18,1.46.87.92,1.3,1.79,1.3,2.62s-.35,1.55-1.05,2.17c-.7.62-1.61.93-2.72.93-.93,0-1.62-.19-2.07-.57s-.68-.85-.68-1.4c0-.27.09-.5.26-.68s.38-.27.63-.27c.22,0,.41.07.56.22s.23.31.23.51c0,.08,0,.18-.02.3,0,.1,0,.19,0,.26,0,.26.11.48.33.66.21.18.5.27.86.27.42,0,.79-.07,1.11-.22.32-.14.57-.36.75-.66.18-.29.27-.58.27-.87s-.08-.56-.25-.84c-.17-.28-.54-.75-1.13-1.39-.81-.91-1.22-1.78-1.22-2.61,0-.76.31-1.43.93-2.01s1.4-.86,2.36-.86Z"/>
        <path class="st5" d="M266.28,470.35c.7,0,1.23.13,1.61.4s.57.58.57.93c0,.21-.08.39-.24.55s-.35.23-.58.23c-.15,0-.28-.03-.39-.1s-.27-.23-.47-.5c-.38-.51-.76-.76-1.14-.76-.32,0-.6.12-.85.37-.25.25-.37.55-.37.92,0,.32.08.63.23.93.16.3.55.79,1.18,1.46.87.92,1.3,1.79,1.3,2.62s-.35,1.55-1.05,2.17c-.7.62-1.61.93-2.72.93-.93,0-1.62-.19-2.07-.57s-.68-.85-.68-1.4c0-.27.09-.5.26-.68s.38-.27.63-.27c.22,0,.41.07.56.22s.23.31.23.51c0,.08,0,.18-.02.3,0,.1,0,.19,0,.26,0,.26.11.48.33.66.21.18.5.27.86.27.42,0,.79-.07,1.11-.22.32-.14.57-.36.75-.66.18-.29.27-.58.27-.87s-.08-.56-.25-.84c-.17-.28-.54-.75-1.13-1.39-.81-.91-1.22-1.78-1.22-2.61,0-.76.31-1.43.93-2.01s1.4-.86,2.36-.86Z"/>
        <path class="st5" d="M274.95,477.27l.39.52c-1.91,1.82-3.55,2.73-4.92,2.73-.55,0-.98-.19-1.27-.56s-.44-.98-.44-1.8c0-1.67.51-3.34,1.52-4.99,1.14-1.88,2.5-2.82,4.09-2.82.55,0,.98.14,1.27.42s.44.66.44,1.14-.18,1.01-.53,1.5-.98,1-1.89,1.54c-.45.26-1.42.72-2.91,1.39-.07.42-.11.82-.11,1.21,0,.55.09.94.26,1.16s.43.33.77.33.67-.09,1.05-.27c.52-.24,1.27-.73,2.26-1.48ZM270.85,475.57c1.26-.56,2.2-1.17,2.84-1.82.43-.45.64-.9.64-1.35,0-.34-.09-.6-.26-.8s-.4-.3-.69-.3-.57.11-.84.33c-.37.29-.68.73-.93,1.31-.36.86-.61,1.73-.76,2.62Z"/>
        <path class="st5" d="M277.32,473.11l-.4-.41c1-.96,1.8-1.59,2.39-1.91.59-.31,1.1-.47,1.52-.47.16,0,.29.04.39.11s.14.15.14.25c0,.07-.02.2-.06.38l-.53,2.36c.8-.88,1.79-1.71,2.99-2.47.64-.4,1.17-.6,1.58-.6.3,0,.54.1.71.29.17.2.26.48.26.84,0,.24-.04.52-.1.82-.12.51-.45,1.61-.98,3.32-.5,1.59-.75,2.65-.75,3.18,0,.16.02.28.07.36s.11.12.2.12c.23,0,.58-.22,1.07-.66.34-.31.69-.6,1.03-.87l.29.42c-.72.79-1.46,1.43-2.24,1.91-.49.31-.9.47-1.22.47-.3,0-.53-.11-.69-.32s-.25-.56-.25-1.05c0-.7.43-2.43,1.3-5.19.27-.98.4-1.56.4-1.72,0-.24-.14-.36-.43-.36-.31,0-.71.16-1.21.49-.73.48-1.35,1.06-1.84,1.71-.31.42-.57,1.1-.79,2.02l-.95,4.1h-1.75c.33-1.17.61-2.3.86-3.37l1.04-4.46c.04-.18.06-.31.06-.39,0-.21-.08-.32-.23-.32-.12,0-.3.08-.54.25-.48.32-.94.72-1.36,1.18Z"/>
        <path class="st5" d="M294.44,477.67l.25.68c-1.86,1.46-3.43,2.19-4.71,2.19-.68,0-1.17-.24-1.48-.73s-.46-1.1-.46-1.84c0-1.23.33-2.5.98-3.81s1.45-2.3,2.39-3c.73-.54,1.56-.81,2.48-.81.58,0,1.02.11,1.31.33s.45.48.45.8c0,.24-.08.44-.23.59s-.38.23-.66.23-.62-.12-1.05-.38c-.45-.27-.82-.4-1.11-.4-.38,0-.76.17-1.14.52-.38.35-.74,1.02-1.08,2.02-.34,1-.52,2-.52,3.01,0,.74.14,1.31.43,1.72.21.31.51.47.89.47.91,0,2-.53,3.27-1.59Z"/>
        <path class="st5" d="M302.3,477.27l.39.52c-1.91,1.82-3.55,2.73-4.92,2.73-.55,0-.98-.19-1.27-.56s-.44-.98-.44-1.8c0-1.67.51-3.34,1.52-4.99,1.14-1.88,2.5-2.82,4.09-2.82.55,0,.98.14,1.27.42s.44.66.44,1.14-.18,1.01-.53,1.5-.98,1-1.89,1.54c-.45.26-1.42.72-2.91,1.39-.07.42-.11.82-.11,1.21,0,.55.09.94.26,1.16s.43.33.77.33.67-.09,1.05-.27c.52-.24,1.27-.73,2.26-1.48ZM298.2,475.57c1.26-.56,2.2-1.17,2.84-1.82.43-.45.64-.9.64-1.35,0-.34-.09-.6-.26-.8s-.4-.3-.69-.3-.57.11-.84.33c-.37.29-.68.73-.93,1.31-.36.86-.61,1.73-.76,2.62Z"/>
        <path class="st5" d="M323.53,469.29h-.63c.13-.66.2-1.08.2-1.27,0-.26-.09-.45-.27-.57-.18-.12-.52-.19-1.02-.19h-.75s-.25,0-.25,0h-2.34c-.05.18-.17.64-.38,1.37-.42,1.52-.74,2.76-.96,3.73h2.28c.55,0,.91-.05,1.08-.16.16-.11.3-.39.41-.83h.63c-.24.98-.45,2.01-.63,3.08h-.64c.05-.45.08-.71.08-.79,0-.19-.09-.33-.28-.42-.11-.05-.41-.09-.89-.11h-2.24c-.23,1.09-.52,2.26-.89,3.52-.37,1.26-.68,2.23-.95,2.92.62.1,1.18.15,1.67.15.32,0,.64-.02.95-.07l-.2.67c-.23.02-.44.04-.63.04-.17,0-.71-.03-1.62-.08-.54-.04-1-.06-1.37-.06-.76,0-1.57.07-2.43.21l.14-.64c.7-.15,1.15-.3,1.38-.47s.39-.36.51-.6c.24-.48.7-1.95,1.36-4.43l1.79-7.02c-1.05.03-1.96.27-2.75.7s-1.41,1.03-1.88,1.76-.7,1.49-.7,2.24c0,.3.04.62.12.94.04.18.15.44.33.77.23.41.34.7.34.87s-.07.31-.2.43-.3.18-.52.18c-.31,0-.57-.16-.76-.49-.27-.44-.4-1.06-.4-1.86,0-1.57.61-3.02,1.84-4.34,1.23-1.31,2.84-1.97,4.85-1.97h4.5c.5,0,1.05-.03,1.65-.09.18-.02.57-.1,1.16-.25-.4,1.63-.64,2.68-.71,3.13Z"/>
        <path class="st5" d="M329.32,470.35c.77,0,1.4.3,1.91.91s.76,1.46.76,2.54c0,1.73-.61,3.29-1.83,4.67s-2.51,2.07-3.87,2.07c-.84,0-1.51-.27-2.02-.82s-.77-1.29-.77-2.24c0-1.64.47-3.16,1.41-4.55,1.18-1.73,2.65-2.59,4.41-2.59ZM328.32,471.23c-.66,0-1.31.47-1.93,1.42s-.93,2.26-.93,3.93c0,1.02.19,1.82.57,2.4.28.43.66.64,1.12.64.66,0,1.25-.41,1.79-1.22.69-1.05,1.03-2.36,1.03-3.93,0-1.17-.16-2.01-.47-2.51s-.71-.75-1.19-.75Z"/>
        <path class="st5" d="M335.27,480.21h-1.75l.82-3.15c.4-1.55.75-3.02,1.04-4.41.07-.34.11-.56.11-.64,0-.19-.09-.28-.26-.28-.12,0-.3.08-.54.24s-.68.56-1.31,1.19l-.36-.41c.75-.8,1.5-1.41,2.24-1.81.75-.4,1.32-.6,1.72-.6.14,0,.25.03.33.1s.12.15.12.25-.05.37-.15.81l-.51,2.11c.79-1.25,1.68-2.31,2.68-3.2.48-.42.88-.63,1.2-.63.23,0,.43.08.59.23.16.15.23.33.23.53s-.08.39-.23.54-.53.32-1.14.53c-.58.2-1.05.43-1.41.7-.36.27-.76.69-1.19,1.25-.43.56-.74,1.05-.91,1.47-.17.42-.43,1.39-.79,2.91l-.53,2.27Z"/>
        <path class="st5" d="M356.31,479.52l-.25.69c-.49.12-.9.19-1.24.19-.37,0-.85-.03-1.46-.09-.57-.06-1.03-.09-1.36-.09-.48,0-1.21.05-2.2.16l.2-.6c.73-.19,1.2-.39,1.38-.61s.5-1.15.94-2.81.66-2.74.66-3.26c0-1.05-.2-2.12-.61-3.22s-.91-1.99-1.52-2.67c-1.15.42-1.97.82-2.47,1.19s-.89.83-1.2,1.37-.45,1.01-.45,1.42.18.77.54,1.11c.3.3.46.56.46.79,0,.2-.06.37-.18.5s-.27.2-.45.2c-.32,0-.59-.16-.81-.47-.3-.43-.45-.95-.45-1.55,0-.87.24-1.68.73-2.45s1.16-1.41,2.03-1.92c.51-.3,1.34-.63,2.51-.97.43-.12.82-.25,1.16-.39.66.79,1.19,1.72,1.59,2.78s.67,2.39.82,3.97c1.45-3.05,2.83-5.2,4.15-6.44s2.39-1.86,3.21-1.86c.26,0,.47.07.63.22.16.15.25.33.25.55s-.1.41-.29.55-.57.23-1.12.27c-.55.04-.97.15-1.27.33-.59.36-1.28,1.02-2.07,2-.79.97-1.58,2.18-2.35,3.64-.77,1.46-1.36,2.97-1.77,4.54s-.62,2.6-.65,3.08c.37.06.73.09,1.09.09.55,0,1.15-.08,1.81-.23Z"/>
        <path class="st5" d="M364.82,470.35c.77,0,1.4.3,1.91.91s.76,1.46.76,2.54c0,1.73-.61,3.29-1.83,4.67s-2.51,2.07-3.87,2.07c-.84,0-1.51-.27-2.02-.82s-.77-1.29-.77-2.24c0-1.64.47-3.16,1.41-4.55,1.18-1.73,2.65-2.59,4.41-2.59ZM363.83,471.23c-.66,0-1.31.47-1.93,1.42s-.93,2.26-.93,3.93c0,1.02.19,1.82.57,2.4.28.43.66.64,1.12.64.66,0,1.25-.41,1.79-1.22.69-1.05,1.03-2.36,1.03-3.93,0-1.17-.16-2.01-.47-2.51s-.71-.75-1.19-.75Z"/>
        <path class="st5" d="M376.53,470.66h1.67l-1.1,4.1c-.65,2.38-.97,3.73-.97,4.06,0,.15.04.26.11.34s.15.12.23.12c.13,0,.29-.06.47-.18.26-.18.75-.63,1.46-1.36l.39.43c-1.57,1.63-2.73,2.45-3.47,2.45-.25,0-.46-.1-.64-.29s-.26-.46-.26-.81c0-.41.08-.95.25-1.63-.69.8-1.55,1.5-2.58,2.1-.68.4-1.27.6-1.77.6-.27,0-.49-.09-.64-.27s-.23-.47-.23-.86c0-.3.04-.63.11-.99.1-.49.36-1.48.77-2.97.52-1.88.79-3.02.79-3.39,0-.22-.08-.33-.23-.33-.14,0-.33.07-.57.22s-.66.49-1.24,1.05l-.52-.41c1.05-.94,1.85-1.55,2.4-1.85s.99-.44,1.33-.44c.19,0,.34.07.46.21.12.14.18.35.18.64,0,.54-.28,1.87-.84,3.98-.5,1.9-.75,2.98-.75,3.25,0,.16.05.31.16.42s.22.18.35.18c.44,0,1.06-.36,1.86-1.08s1.33-1.54,1.58-2.47l1.28-4.82Z"/>
      </g>
    </g>
  </g>
  <g class="st7">
    <g class="st7">
      <g class="st7">
        <path class="st5" d="M267.76,676.15l-.6-.29c.62-1.23,1.26-2.08,1.92-2.55s1.4-.71,2.22-.71c.98,0,1.77.31,2.36.94s.88,1.35.88,2.19c0,.52-.11,1.04-.32,1.57-.21.53-.56,1.09-1.04,1.66-.31.38-1.17,1.18-2.58,2.38-1.89,1.64-3.22,2.97-3.98,3.98,1.02-.05,2.08-.07,3.16-.07.35,0,.66,0,.91.01.57.02.96-.03,1.17-.16s.56-.58,1.04-1.34h.81c-.63.88-1.18,1.95-1.65,3.22-.55-.1-1.14-.18-1.76-.23s-1.27-.08-1.95-.08c-.8,0-1.99.05-3.55.15l.23-.74c.71-1.06,1.77-2.25,3.19-3.58,1.4-1.31,2.3-2.23,2.71-2.76.59-.76,1.01-1.47,1.28-2.15.2-.5.3-.99.3-1.45,0-.7-.19-1.27-.57-1.69-.38-.42-.86-.63-1.42-.63-.47,0-.93.17-1.38.51-.45.34-.91.94-1.39,1.81Z"/>
        <path class="st5" d="M281.84,672.62c1.12,0,2.01.41,2.69,1.23s1.01,2.05,1.01,3.68c0,2.32-.58,4.48-1.75,6.48-1.17,2-2.58,3-4.25,3-.98,0-1.8-.43-2.48-1.28s-1.01-2.01-1.01-3.48c0-1.73.34-3.42,1.01-5.07.67-1.65,1.43-2.83,2.27-3.52s1.68-1.04,2.51-1.04ZM281.63,673.31c-.48,0-.98.32-1.48.97s-.97,1.83-1.39,3.54c-.43,1.72-.64,3.35-.64,4.91,0,1.25.18,2.16.54,2.73.36.57.78.86,1.25.86.41,0,.82-.21,1.23-.62.6-.62,1.14-1.78,1.63-3.49.48-1.71.73-3.43.73-5.16,0-1.34-.2-2.34-.61-3-.3-.49-.72-.74-1.25-.74Z"/>
        <path class="st5" d="M292.4,672.62c1.12,0,2.01.41,2.69,1.23s1.01,2.05,1.01,3.68c0,2.32-.58,4.48-1.75,6.48-1.17,2-2.58,3-4.25,3-.98,0-1.8-.43-2.48-1.28s-1.01-2.01-1.01-3.48c0-1.73.34-3.42,1.01-5.07.67-1.65,1.43-2.83,2.27-3.52s1.68-1.04,2.51-1.04ZM292.18,673.31c-.48,0-.98.32-1.48.97s-.97,1.83-1.39,3.54c-.43,1.72-.64,3.35-.64,4.91,0,1.25.18,2.16.54,2.73.36.57.78.86,1.25.86.41,0,.82-.21,1.23-.62.6-.62,1.14-1.78,1.63-3.49.48-1.71.73-3.43.73-5.16,0-1.34-.2-2.34-.61-3-.3-.49-.72-.74-1.25-.74Z"/>
      </g>
    </g>
    <g class="st7">
      <g class="st7">
        <path class="st5" d="M311.04,687.17l-.93-12.62c-.2,2.12-.58,4.11-1.12,5.95s-1.17,3.26-1.86,4.27-1.41,1.71-2.13,2.12-1.45.61-2.16.61c-.43,0-.76-.09-.99-.26s-.35-.39-.35-.64c0-.21.08-.39.25-.55s.38-.23.64-.23c.19,0,.46.04.81.12.32.08.59.12.8.12.37,0,.75-.14,1.15-.41.6-.41,1.2-1.13,1.79-2.18.59-1.05,1.12-2.51,1.58-4.39.46-1.88.76-3.71.87-5.5-1.77,0-3.21.44-4.32,1.32-.88.7-1.32,1.49-1.32,2.36,0,.38.21.84.62,1.38.22.29.34.52.34.7,0,.2-.06.37-.19.5-.13.13-.28.2-.46.2-.3,0-.57-.17-.8-.52-.32-.46-.48-1.01-.48-1.64,0-.89.3-1.74.9-2.56s1.43-1.44,2.48-1.86,2.3-.64,3.72-.65c.77,0,1.38-.07,1.84-.21-.03.7-.04,1.08-.03,1.14,0,.07,0,.23.03.48l.68,8.92c1.89-3.3,3.74-6.01,5.54-8.14,1.28-1.51,2.4-2.53,3.35-3.06-.54,1.48-1.12,3.44-1.74,5.87l-1.44,5.62c-.08.31-.18.77-.32,1.37l-.28,1.25c.59.14,1.14.21,1.63.21.4,0,.83-.05,1.28-.14l-.15.68c-.4.07-.71.11-.93.11-.32,0-.78-.04-1.38-.11-.49-.06-.93-.09-1.31-.09-.41,0-.87.08-1.38.23.43-1.12.88-2.64,1.35-4.54l.9-3.59c.38-1.55.72-2.61,1-3.19-.63.71-1.59,2.02-2.9,3.92-1.05,1.53-2.23,3.47-3.53,5.82l-1.02,1.79Z"/>
        <path class="st5" d="M321.3,686.87l.14-.63c.82-.16,1.37-.34,1.65-.54s.53-.56.75-1.08.53-1.59.91-3.22c.51-2.15.97-3.7,1.38-4.64.63-1.42,1.42-2.48,2.36-3.16s1.89-1.03,2.85-1.03c.62,0,1.14.16,1.56.47s.63.64.63.97c0,.19-.06.35-.19.48s-.28.2-.46.2c-.23,0-.52-.15-.85-.46-.38-.33-.67-.54-.87-.64s-.41-.15-.6-.15c-.23,0-.45.06-.67.19-.3.17-.63.5-.98.98-.35.48-.71,1.19-1.08,2.14-.24.64-.55,1.7-.93,3.16-.59,2.34-1.03,3.89-1.34,4.65-.22.55-.48,1-.8,1.36,1.12-.24,2.01-.36,2.67-.36.41,0,.8.03,1.15.08s.96.18,1.84.38c.76.18,1.29.27,1.59.27s.55-.09.76-.28.31-.39.31-.63c0-.15-.05-.36-.16-.62-.1-.25-.15-.45-.15-.6,0-.21.06-.38.19-.5.12-.12.29-.18.49-.18.23,0,.43.1.6.31s.25.49.25.85c0,.68-.28,1.27-.84,1.76s-1.32.74-2.29.74c-.48,0-1.09-.04-1.84-.11-2.53-.23-4.19-.34-4.97-.34-1.15,0-2.16.07-3.05.2Z"/>
      </g>
    </g>
  </g>
  <g class="st7">
    <g class="st7">
      <g class="st7">
        <path class="st5" d="M240.07,650.06l.15-.5c1.06-.07,2.32-.24,3.76-.52-.42.87-.79,1.85-1.11,2.95l-.97,3.27c-.69,2.36-1.47,4.14-2.34,5.34.84.13,1.58.2,2.22.2,1.71,0,3.19-.29,4.46-.86,1.27-.57,2.28-1.41,3.02-2.51s1.12-2.32,1.12-3.64c0-1.74-.63-3.14-1.9-4.2s-2.93-1.59-4.98-1.59c-1.73,0-3.36.33-4.89.98s-2.74,1.53-3.64,2.61c-.89,1.08-1.34,2.13-1.34,3.16s.55,1.73,1.64,2.2c.31.14.52.26.61.36s.14.23.14.38c0,.19-.09.35-.27.5-.18.14-.39.22-.63.22-.52,0-1.02-.27-1.52-.82-.67-.77-1-1.55-1-2.36,0-1.34.5-2.64,1.5-3.9s2.4-2.25,4.18-2.99,3.77-1.11,5.96-1.11c2.7,0,4.84.58,6.44,1.73s2.4,2.6,2.4,4.34c0,1.62-.56,3.1-1.67,4.46s-2.46,2.32-4.03,2.89c-1.58.57-3.15.86-4.72.86-.51,0-1.39-.04-2.63-.12-1.05-.06-2.05-.09-3-.09-.44,0-1.11.01-2.01.04l.34-.57c.9-.04,1.46-.1,1.68-.19s.41-.23.56-.43c.28-.36.67-1.14,1.16-2.34l1.01-3.06,1.17-3.82c.06-.19.09-.35.09-.48,0-.12-.05-.22-.15-.3-.1-.07-.23-.11-.41-.11-.07,0-.21.01-.41.04Z"/>
        <path class="st5" d="M261.77,658.39l.48.52c-2.39,1.82-4.44,2.73-6.15,2.73-.69,0-1.22-.19-1.59-.56s-.55-.98-.55-1.8c0-1.67.63-3.34,1.9-4.99,1.43-1.88,3.13-2.82,5.11-2.82.69,0,1.22.14,1.59.42s.55.66.55,1.14-.22,1.01-.66,1.5-1.23,1-2.36,1.54c-.57.26-1.78.72-3.63,1.39-.09.42-.13.82-.13,1.21,0,.55.11.94.33,1.16s.54.33.96.33.84-.09,1.32-.27c.64-.24,1.59-.73,2.83-1.48ZM256.64,656.69c1.57-.56,2.75-1.17,3.54-1.82.54-.45.81-.9.81-1.35,0-.34-.11-.6-.33-.8s-.51-.3-.86-.3-.71.11-1.05.33c-.46.29-.84.73-1.16,1.31-.45.86-.77,1.73-.95,2.62Z"/>
        <path class="st5" d="M270.72,651.47c.87,0,1.54.13,2.01.4s.71.58.71.93c0,.21-.1.39-.3.55s-.44.23-.73.23c-.19,0-.35-.03-.48-.1s-.33-.23-.59-.5c-.48-.51-.95-.76-1.42-.76-.4,0-.75.12-1.06.37-.31.25-.46.55-.46.92,0,.32.1.63.29.93.2.3.69.79,1.48,1.46,1.08.92,1.63,1.79,1.63,2.62s-.44,1.55-1.32,2.17c-.88.62-2.01.93-3.4.93-1.16,0-2.03-.19-2.59-.57s-.85-.85-.85-1.4c0-.27.11-.5.32-.68s.48-.27.79-.27c.27,0,.51.07.7.22s.29.31.29.51c0,.08,0,.18-.02.3,0,.1,0,.19,0,.26,0,.26.14.48.41.66.26.18.62.27,1.08.27.53,0,.99-.07,1.39-.22.4-.14.71-.36.93-.66.22-.29.34-.58.34-.87s-.1-.56-.31-.84c-.21-.28-.68-.75-1.41-1.39-1.02-.91-1.52-1.78-1.52-2.61,0-.76.39-1.43,1.16-2.01s1.75-.86,2.94-.86Z"/>
        <path class="st5" d="M281.56,658.39l.48.52c-2.39,1.82-4.44,2.73-6.15,2.73-.69,0-1.22-.19-1.59-.56s-.55-.98-.55-1.8c0-1.67.63-3.34,1.9-4.99,1.43-1.88,3.13-2.82,5.11-2.82.69,0,1.22.14,1.59.42s.55.66.55,1.14-.22,1.01-.66,1.5-1.23,1-2.36,1.54c-.57.26-1.78.72-3.63,1.39-.09.42-.13.82-.13,1.21,0,.55.11.94.33,1.16s.54.33.96.33.84-.09,1.32-.27c.64-.24,1.59-.73,2.83-1.48ZM276.43,656.69c1.57-.56,2.75-1.17,3.54-1.82.54-.45.81-.9.81-1.35,0-.34-.11-.6-.33-.8s-.51-.3-.86-.3-.71.11-1.05.33c-.46.29-.84.73-1.16,1.31-.45.86-.77,1.73-.95,2.62Z"/>
        <path class="st5" d="M286.79,661.33h-2.18l1.03-3.15c.5-1.55.93-3.02,1.3-4.41.09-.34.13-.56.13-.64,0-.19-.11-.28-.32-.28-.15,0-.37.08-.67.24s-.85.56-1.64,1.19l-.45-.41c.94-.8,1.87-1.41,2.8-1.81.93-.4,1.65-.6,2.15-.6.18,0,.31.03.42.1s.15.15.15.25-.06.37-.19.81l-.64,2.11c.99-1.25,2.1-2.31,3.35-3.2.6-.42,1.1-.63,1.5-.63.29,0,.54.08.73.23.2.15.29.33.29.53s-.1.39-.29.54-.67.32-1.43.53c-.72.2-1.31.43-1.76.7-.45.27-.95.69-1.49,1.25s-.92,1.05-1.14,1.47c-.22.42-.54,1.39-.98,2.91l-.66,2.27Z"/>
        <path class="st5" d="M297.18,649.67l2.33-.71-1.05,3.28h3.03l-.23.83h-3.04l-1.28,3.93c-.41,1.18-.61,2-.61,2.46,0,.21.06.36.17.46s.27.14.46.14c.3,0,.77-.14,1.39-.43.82-.38,1.6-.82,2.34-1.3l.56.54c-2.14,1.29-3.57,2.08-4.29,2.37s-1.3.43-1.74.43c-.36,0-.65-.11-.86-.32s-.31-.55-.31-1.03c0-.56.19-1.42.56-2.58l1.49-4.66h-2.37l.26-.83h2.38l.82-2.57Z"/>
        <path class="st5" d="M332.33,660.81l-.15.67c-.35.02-.66.04-.92.04-.38,0-.84-.02-1.38-.07-.92-.08-1.5-.12-1.74-.12-.41,0-1.04.05-1.89.15.3-.61.56-1.25.76-1.92.15-.48.3-1.3.47-2.46-1.14,0-2.91.01-5.31.06-2.49,3.03-4.31,4.94-5.46,5.71-1.16.78-2.26,1.17-3.3,1.17-.55,0-.95-.08-1.22-.25-.27-.17-.4-.38-.4-.65,0-.2.08-.37.23-.5s.35-.2.59-.2c.14,0,.32.02.56.06.59.11.98.16,1.17.16.65,0,1.38-.3,2.17-.89,1.29-.97,3.19-3,5.71-6.09,2.85-3.5,5.16-6.05,6.92-7.64-2.41.17-3.91.34-4.51.49-.82.21-1.43.52-1.84.94-.41.41-.61.84-.61,1.27,0,.14.06.34.19.6.14.29.21.5.21.63,0,.17-.08.32-.25.46s-.37.2-.6.2c-.33,0-.6-.1-.8-.3s-.3-.5-.3-.9c0-.56.18-1.11.55-1.63.37-.53.89-.97,1.57-1.32s1.54-.63,2.56-.81c.53-.1,1.46-.19,2.78-.27,1.15-.08,1.88-.15,2.17-.22.46-.1.9-.3,1.32-.6-.29.96-.5,1.8-.63,2.52l-1.14,6.77-.66,4.85c.72.15,1.37.22,1.95.22.38,0,.8-.04,1.25-.11ZM327.62,656.23c.47-3.17.94-5.49,1.41-6.95-1.24,1.31-2,2.14-2.29,2.49l-3.76,4.46c.81.02,1.96.04,3.47.04.37,0,.77-.01,1.19-.04Z"/>
        <path class="st5" d="M344.35,651.78h2.09l-1.38,4.1c-.81,2.38-1.22,3.73-1.22,4.06,0,.15.04.26.13.34s.19.12.29.12c.17,0,.36-.06.59-.18.32-.18.93-.63,1.83-1.36l.48.43c-1.96,1.63-3.41,2.45-4.34,2.45-.31,0-.58-.1-.8-.29-.22-.19-.33-.46-.33-.81,0-.41.11-.95.32-1.63-.87.8-1.94,1.5-3.22,2.1-.85.4-1.59.6-2.21.6-.34,0-.61-.09-.8-.27-.2-.18-.29-.47-.29-.86,0-.3.04-.63.13-.99.13-.49.45-1.48.97-2.97.65-1.88.98-3.02.98-3.39,0-.22-.1-.33-.29-.33-.18,0-.42.07-.72.22s-.82.49-1.55,1.05l-.64-.41c1.31-.94,2.31-1.55,3-1.85.69-.29,1.24-.44,1.66-.44.23,0,.42.07.57.21.15.14.22.35.22.64,0,.54-.35,1.87-1.05,3.98-.62,1.9-.94,2.98-.94,3.25,0,.16.07.31.2.42s.28.18.43.18c.55,0,1.32-.36,2.33-1.08s1.66-1.54,1.98-2.47l1.59-4.82Z"/>
        <path class="st5" d="M350.96,661.33h-2.18l1.03-3.15c.5-1.55.93-3.02,1.3-4.41.09-.34.13-.56.13-.64,0-.19-.11-.28-.32-.28-.15,0-.37.08-.67.24s-.85.56-1.64,1.19l-.45-.41c.94-.8,1.87-1.41,2.8-1.81.93-.4,1.65-.6,2.15-.6.18,0,.31.03.42.1s.15.15.15.25-.06.37-.19.81l-.64,2.11c.99-1.25,2.1-2.31,3.35-3.2.6-.42,1.1-.63,1.5-.63.29,0,.54.08.73.23.2.15.29.33.29.53s-.1.39-.29.54c-.19.15-.67.32-1.43.53-.72.2-1.31.43-1.76.7-.45.27-.95.69-1.49,1.25-.54.56-.92,1.05-1.13,1.47-.22.42-.54,1.39-.98,2.91l-.66,2.27Z"/>
        <path class="st5" d="M367.24,651.28l.97-.16-1.1,2.96c-.44,1.18-.85,2.54-1.25,4.08-.21.84-.32,1.38-.32,1.62s.12.36.37.36c.16,0,.41-.08.75-.25.61-.29,1.19-.65,1.74-1.08l.47.46c-1.11.81-1.83,1.3-2.14,1.48-.62.34-1.22.6-1.79.76-.37.11-.73.16-1.08.16-.25,0-.44-.05-.57-.14s-.19-.23-.19-.41c0-.12.04-.28.12-.48l.59-1.59c-.84.8-1.84,1.5-3,2.07-.71.36-1.37.54-1.96.54s-1-.16-1.3-.48c-.41-.43-.62-.99-.62-1.69,0-.83.28-1.75.83-2.77s1.29-1.94,2.22-2.77,1.9-1.44,2.93-1.83c.79-.3,1.81-.45,3.05-.45.31,0,.63.02.95.05l.35-.46ZM365.42,653.07c-.53-.09-.97-.13-1.33-.13-.88,0-1.65.19-2.3.58s-1.26,1.08-1.82,2.09-.84,2.01-.84,3.01c0,.53.11.91.34,1.15s.52.35.88.35c.67,0,1.4-.29,2.17-.87s1.34-1.42,1.7-2.51l1.22-3.66Z"/>
      </g>
    </g>
  </g>
</svg>