<?xml version="1.0" encoding="UTF-8"?>
<svg id="Layer_1" xmlns="http://www.w3.org/2000/svg" version="1.1" viewBox="0 0 1536 1024">
  <!-- Generator: Adobe Illustrator 29.6.1, SVG Export Plug-In . SVG Version: 2.1.1 Build 9)  -->
  <defs>
    <style>
      .st0 {
        fill: #f9cbdf;
      }

      .st0, .st1, .st2, .st3, .st4, .st5, .st6 {
        stroke-miterlimit: 10;
      }

      .st0, .st1, .st3 {
        stroke-width: 4px;
      }

      .st0, .st1, .st3, .st4, .st6 {
        stroke: #231f20;
      }

      .st1, .st4, .st6 {
        fill: #6d9f71;
      }

      .st2 {
        stroke: #046433;
      }

      .st2, .st7, .st4, .st8, .st6 {
        isolation: isolate;
      }

      .st2, .st3, .st5 {
        fill: none;
      }

      .st2, .st4, .st8 {
        font-family: MonotypeCorsiva, 'Monotype Corsiva';
      }

      .st2, .st8 {
        font-size: 48px;
      }

      .st4 {
        font-size: 202.4px;
      }

      .st4, .st5, .st6 {
        stroke-width: 3px;
      }

      .st5 {
        stroke: #006327;
      }

      .st8 {
        fill: #046433;
      }

      .st6 {
        font-family: BaskOldFace, 'Baskerville Old Face';
        font-size: 280.55px;
      }
    </style>
  </defs>
  <g>
    <polygon class="st0" points="170.31 179.57 209.45 139.03 353.09 137.96 393.53 176.25 351.06 247.71 363.71 256.98 365.06 274.08 351.39 284.65 355.12 301.17 356.96 306.67 363.03 314.88 367.83 317.62 369.5 318.84 321.16 319.2 199.46 321.27 203.44 314.23 207.86 307.57 210.51 301.76 214.45 291.81 214.88 288.49 217.53 283.1 208.99 281.92 205.81 277.4 201.12 272.32 200.93 268.32 200.97 263.78 203.26 259.42 207.26 254.22 210.08 252.28 212.37 249.98 185.52 209.24 167.34 182.36 170.31 179.57"/>
    <polyline class="st0" points="353.45 281.54 220.59 282.53 217.53 283.1"/>
    <line class="st3" x1="212.37" y1="249.98" x2="351.06" y2="247.71"/>
    <line class="st3" x1="393.53" y1="176.25" x2="170.31" y2="179.57"/>
    <line class="st3" x1="222.38" y1="180.36" x2="251.72" y2="249.22"/>
    <line class="st3" x1="341.77" y1="177.4" x2="311.42" y2="248.36"/>
  </g>
  <polygon class="st0" points="369.5 318.84 409.47 320.82 489.09 391.37 483.41 767.76 409.47 833.64 153.63 836.38 82.14 772.39 80.62 395.24 155.41 322.71 199.46 321.27 369.5 318.84"/>
  <g>
    <path class="st3" d="M261.39,556.41c-10.38-12.27-28.15-36.99-26.43-65.63.81-13.3,5.36-19.71,9.23-23.53,12.96-12.78,34.36-12.45,36.7-12.39,24.8.68,39.26,17.31,41.71,20.13,17.57,20.2,8.9,44.42,6.12,52.21-6.22,17.46-18.9,28.85-25.79,34.23"/>
    <path class="st3" d="M309.36,578.79c13.08,1.7,49.13,4.88,79.52-12.37,7.39-4.2,18.25-10.54,23.42-22.14,9.07-20.4-7.28-39.49-9.8-42.33-2.61-2.93-12.03-13.25-28.82-17.54-3.43-.88-10.62-2.52-19.83-1.37-12.5,1.57-20.59,7.36-23.63,9.77"/>
    <path class="st3" d="M259.21,577.98c-11.39,2.52-35.86,6.62-61.24.12-7.32-1.87-18.01-4.73-27.12-12.72-6.24-5.47-9.03-10.96-10.5-13.94-2.41-4.85-7.59-15.33-3.43-27.56,3.55-10.41,11.98-16.49,18.68-21.34,7.12-5.15,14.19-10.25,25.27-11.6,14.61-1.78,26.2,4.2,29.78,6.2"/>
    <path class="st3" d="M223.25,552.94c.62,1.65,3.47,8.45,12.39,12.78,9.1,4.41,18.13,3.16,20.21,2.83"/>
    <path class="st3" d="M284.3,519.18c-.88,10.85-1.79,21.68-2.67,32.53"/>
    <path class="st3" d="M343.12,552.06c-6.09,8.29-12.75,11.93-17.93,13.73-7.49,2.57-19.78,3.93-19.78,3.93-7.71-10.72-9.43-11.99-9.43-11.99-7.39-4.44-20.06-6.66-29.27-2.04-8.58,4.27-9.19,12.86-9.3,15.2-.31,6.55,3.45,11.26,4.72,12.79,1.46,1.79,4.53,5.36,10.45,7.49.98.35,9.33,3.25,17,.64,12.43-4.23,15.13-20.19,16.82-19.81,1.03.24-2.29,5.78.84,9.1,4.52,4.76,19.73,2.48,30.39.87.74-.11,3.53-.53,5.18-.8,8.11-1.24,9.84-1.55,12.74-1.98,6.89-1.02,10.37-1.51,12.37-1.57,8.51-.21,15.07,2.21,18.9,3.65,4.94,1.84,9.68,3.6,13.16,7.8.88,1.05,2.8,3.4,3.35,6.78.83,4.92-1.71,8.8-3.2,10.99-3.23,4.74-7,6.9-13.1,11.07-12.26,8.36-10.86,9.06-16.89,12.62-15.91,9.36-34.28,9.41-35.68,9.4,0,0-17.67-1.18-39.88-12.99-.58-.31-2.86-1.56-6.24-2.38-3.62-.88-6.46-.78-7.23-.74-2.9.15-5.18.8-6.84,1.38-8.56,3-17.51,11.02-26.65,13.88-7.44,2.32-13.48,4.22-21.68,3.94-11.41-.38-19.36-4.7-28.41-9.63-5.3-2.88-14.43-7.94-21.97-17.3-5.33-6.57-9.75-12.06-8.54-18.05,1.82-8.97,15.77-16.35,34.17-18.47"/>
    <path class="st3" d="M282.01,594.48"/>
    <path class="st3" d="M241.04,603.86c1.43.31,9.48,1.87,17.45-2.03,7.11-3.48,9.33-8.96,9.82-10.3"/>
    <path class="st3" d="M231.02,699.73"/>
    <path class="st3" d="M317.47,602.17c-1.63.29-7.24,1.08-12.77-1.42-5.79-2.64-9.27-7.9-9.08-13.65"/>
    <path class="st3" d="M281.02,589.95l1.03,116.96"/>
  </g>
  <g class="st7">
    <g class="st7">
      <g class="st7">
        <text class="st8" transform="translate(-380.43 262.27)"><tspan x="0" y="0">PETALIA</tspan></text>
      </g>
    </g>
    <g class="st7">
      <g class="st7">
        <text class="st2" transform="translate(-380.43 262.27)"><tspan x="0" y="0">PETALIA</tspan></text>
      </g>
    </g>
  </g>
  <path class="st1" d="M483.31,65.83"/>
  <path class="st3" d="M284.65,670.56"/>
  <path class="st5" d="M308.42,702.16"/>
  <g class="st7">
    <text/>
  </g>
  <g class="st7">
    <text class="st4" transform="translate(625.69 706.91) rotate(-.78) scale(.65 1) skewX(.35)"><tspan x="0" y="0">Perfume Shop</tspan></text>
  </g>
  <text/>
  <text/>
  <g class="st7">
    <text class="st6" transform="translate(521.91 519.18) rotate(-.44) scale(1.14 1) skewX(1.16)"><tspan x="0" y="0">Petalia</tspan></text>
  </g>
  <text/>
</svg>