<?xml version="1.0" encoding="UTF-8"?>
<svg id="Layer_1" xmlns="http://www.w3.org/2000/svg" version="1.1" viewBox="0 0 595.28 841.89">
  <!-- Generator: Adobe Illustrator 29.4.0, SVG Export Plug-In . SVG Version: 2.1.0 Build 152)  -->
  <defs>
    <style>
      .st0 {
        fill: #ddccbf;
      }

      .st0, .st1, .st2, .st3, .st4, .st5 {
        stroke-miterlimit: 10;
      }

      .st0, .st3 {
        stroke: #010101;
      }

      .st1 {
        fill: #fff;
        stroke: #231f20;
      }

      .st2, .st4, .st5 {
        stroke: #6b3d5a;
      }

      .st2, .st6 {
        fill: #6b3d5a;
      }

      .st3, .st4 {
        fill: none;
      }

      .st7 {
        isolation: isolate;
      }

      .st8, .st5 {
        fill: #b795b6;
      }
    </style>
  </defs>
  <path class="st1" d="M353.06,298.96"/>
  <polygon class="st2" points="422.6 256.03 481.63 317.28 481.63 734.77 421.29 787.96 166.42 786.96 112.25 738.23 111.23 318.89 167.84 256.03 422.6 256.03"/>
  <path class="st3" d="M-107.94,426.89"/>
  <path class="st3" d="M509.94,256.03"/>
  <path class="st3" d="M30.31,16.54"/>
  <g>
    <polygon class="st5" points="230.83 73.07 360.23 73.07 385.3 112.56 354.89 179.33 359.42 181.07 359.42 198 352.95 210.89 359.42 226.2 369.93 246.35 371.55 256.03 218.7 256.03 221.93 252 229.21 231.04 238.11 218.95 238.92 210.89 234.87 199.61 233.25 190.74 234.87 185.1 241.34 181.88 204.95 114.18 230.83 73.07"/>
    <path class="st4" d="M234.65,199.61c15.96,2.78,34.95,4.9,56.34,4.99,26.34.11,49.26-2.89,67.71-6.6"/>
    <path class="st4" d="M358.7,226.07c-16.17,4.62-38.25,9.24-64.71,9.96-26.24.71-48.39-2.65-64.71-6.35"/>
    <polyline class="st4" points="204.23 114.18 226.74 106.92 256.8 106.92 332.02 106.92 353.85 106.92 384.58 112.56"/>
    <path class="st4" d="M362.24,231.39c-16.77,4.68-39.67,9.37-67.12,10.09-27.22.72-50.19-2.69-67.12-6.43"/>
    <path class="st4" d="M237.66,208.77c15.08,2.78,33.02,4.9,53.24,4.99,24.89.11,46.55-2.89,63.98-6.6"/>
    <path class="st4" d="M240.63,181.88c11.23,3.87,29.15,8.52,51.45,7.95,25.2-.65,51.13-5.27,62.49-10.37"/>
  </g>
  <path class="st0" d="M397.75,180.42"/>
  <polygon class="st8" points="170.43 267.96 421.56 267.96 469.46 316.96 469.46 720.96 424.3 772.96 170.43 772.96 125.28 722.96 125.28 318.96 170.43 267.96"/>
  <g class="st7">
    <g class="st7">
      <g class="st7">
        <path class="st6" d="M217.59,436.5l-1.37-1.41c2.13-2.55,4.25-4.44,6.36-5.66s3.94-1.83,5.48-1.83c.59,0,1.05.15,1.39.44.34.29.51.72.51,1.28,0,.68-.08,1.38-.23,2.09-.15.71-.63,2.41-1.42,5.08,3.59-3.59,6.03-5.8,7.35-6.64,2.2-1.43,4.22-2.14,6.05-2.14,1.2,0,2.2.56,3.02,1.69.82,1.12,1.23,2.82,1.23,5.1,0,5.67-1.77,11.06-5.3,16.17s-7.45,7.66-11.73,7.66c-1.69,0-3.37-.46-5.06-1.37l-3,11.6c-.19.7-.28,1.28-.28,1.72,0,.87.33,1.49.98,1.86,1.01.59,3.13,1.07,6.36,1.44l-.46,1.76c-3.77-.3-6.74-.46-8.89-.46s-5.11.15-8.65.46l.46-1.76c1.78-.19,3.08-.68,3.88-1.48s1.46-2.21,1.95-4.25l6.36-26.68c1.2-4.97,1.79-7.73,1.79-8.3,0-.61-.29-.91-.88-.91-1.03,0-3,1.51-5.91,4.54ZM224.72,453.1c1.85,1.85,3.75,2.78,5.69,2.78,2.81,0,5.27-2.19,7.39-6.57s3.18-8.66,3.18-12.83c0-1.34-.3-2.35-.9-3.04-.6-.69-1.4-1.04-2.4-1.04-1.12,0-2.39.55-3.79,1.65-2.18,1.71-3.84,3.41-4.98,5.1-.82,1.22-1.59,3.33-2.32,6.33l-1.87,7.63Z"/>
        <path class="st6" d="M267.17,448.53l1.16,1.55c-5.74,5.46-10.66,8.19-14.77,8.19-1.66,0-2.94-.56-3.81-1.69s-1.32-2.93-1.32-5.41c0-5.02,1.52-10.01,4.57-14.98,3.42-5.65,7.51-8.47,12.27-8.47,1.66,0,2.94.42,3.81,1.25s1.32,1.97,1.32,3.43-.53,3.02-1.58,4.5-2.94,3.01-5.66,4.61c-1.36.77-4.27,2.17-8.72,4.18-.21,1.27-.32,2.47-.32,3.62,0,1.66.26,2.82.79,3.48s1.29.98,2.3.98,2.02-.27,3.16-.81c1.55-.73,3.81-2.2,6.79-4.43ZM254.86,443.43c3.77-1.69,6.61-3.5,8.51-5.45,1.29-1.36,1.93-2.71,1.93-4.04,0-1.01-.26-1.81-.79-2.41s-1.21-.9-2.06-.9-1.71.33-2.53.98c-1.1.87-2.03,2.18-2.78,3.94-1.08,2.58-1.84,5.2-2.29,7.88Z"/>
        <path class="st6" d="M283.06,422.37l5.58-2.14-2.53,9.84h7.28l-.56,2.5h-7.29l-3.07,11.78c-.97,3.54-1.46,6-1.46,7.38,0,.63.13,1.09.4,1.37.27.28.64.42,1.11.42.73,0,1.84-.43,3.34-1.3,1.97-1.15,3.84-2.45,5.62-3.9l1.34,1.62c-5.13,3.87-8.57,6.23-10.3,7.1-1.73.87-3.13,1.3-4.18,1.3-.87,0-1.55-.32-2.06-.95-.5-.63-.76-1.66-.76-3.09,0-1.69.44-4.27,1.34-7.73l3.58-13.99h-5.7l.63-2.5h5.7l1.97-7.7Z"/>
        <path class="st6" d="M320.22,427.19l2.32-.49-2.64,8.89c-1.05,3.54-2.05,7.62-2.99,12.23-.52,2.51-.77,4.12-.77,4.85s.29,1.09.88,1.09c.37,0,.97-.25,1.79-.74,1.45-.87,2.85-1.95,4.18-3.23l1.12,1.37c-2.67,2.44-4.38,3.91-5.13,4.43-1.5,1.03-2.93,1.79-4.29,2.29-.89.33-1.76.49-2.6.49-.61,0-1.07-.14-1.37-.42-.3-.28-.46-.69-.46-1.23,0-.35.09-.83.28-1.44l1.41-4.78c-2.02,2.41-4.42,4.49-7.21,6.22-1.71,1.08-3.28,1.62-4.71,1.62s-2.4-.48-3.13-1.44c-.98-1.29-1.48-2.98-1.48-5.06,0-2.48.66-5.25,1.99-8.3,1.32-3.05,3.1-5.81,5.33-8.3,2.23-2.48,4.57-4.31,7.03-5.48,1.9-.89,4.34-1.34,7.31-1.34.75,0,1.51.05,2.29.14l.84-1.37ZM315.86,432.56c-1.27-.26-2.33-.39-3.2-.39-2.11,0-3.95.58-5.52,1.74-1.57,1.16-3.03,3.25-4.38,6.26-1.35,3.01-2.02,6.02-2.02,9.02,0,1.59.27,2.74.81,3.45.54.7,1.24,1.05,2.11,1.05,1.62,0,3.35-.87,5.2-2.62,1.85-1.75,3.21-4.26,4.08-7.54l2.92-10.97Z"/>
        <path class="st6" d="M341.1,448.88l1.2,1.27c-1.83,2.06-3.99,3.94-6.49,5.64s-4.55,2.55-6.17,2.55c-.73,0-1.32-.28-1.79-.83-.47-.55-.7-1.31-.7-2.27,0-1.88.73-5.77,2.18-11.67l3.79-15.43c1.38-5.58,2.54-9.32,3.48-11.21,1.45-2.87,3.51-5.1,6.16-6.69,2.66-1.59,5.46-2.38,8.41-2.38,1.01,0,1.8.24,2.37.73.57.48.86,1.07.86,1.75,0,.76-.28,1.38-.84,1.86-.56.48-1.38.73-2.45.73-.7,0-1.69-.12-2.98-.35-1.12-.19-2.16-.28-3.12-.28s-1.68.2-2.17.59c-.68.56-1.29,1.74-1.84,3.53-.55,1.8-1.44,5.34-2.68,10.64l-3.51,14.73c-1.73,7.38-2.6,11.24-2.6,11.57,0,.75.27,1.12.81,1.12s1.27-.3,2.25-.91c1.95-1.22,3.89-2.78,5.84-4.68Z"/>
        <path class="st6" d="M344.86,435.94l-1.55-1.2c2.34-2.58,4.48-4.41,6.41-5.5s3.58-1.63,4.93-1.63c.75,0,1.32.16,1.72.49.4.33.6.77.6,1.34,0,.68-.76,3.56-2.28,8.65-2.48,8.32-3.72,13.34-3.72,15.05,0,.33.08.6.25.83.16.22.34.33.53.33.75,0,2.67-1.45,5.77-4.36l1.37,1.34c-3.21,3.02-5.55,4.96-7.03,5.8s-2.68,1.27-3.62,1.27c-.82,0-1.47-.26-1.95-.77-.48-.52-.72-1.23-.72-2.14,0-2.93,1.76-10.09,5.27-21.48.16-.54.25-1.02.25-1.44,0-.47-.21-.7-.63-.7-.47,0-1,.19-1.6.56s-1.93,1.57-3.99,3.59ZM358.68,412.67c.73,0,1.32.24,1.79.72.47.48.7,1.1.7,1.85,0,1.03-.36,1.94-1.07,2.72-.72.79-1.52,1.18-2.41,1.18-.7,0-1.29-.25-1.76-.74-.47-.49-.7-1.14-.7-1.93,0-1.05.34-1.95,1.02-2.69.68-.74,1.49-1.11,2.43-1.11Z"/>
        <path class="st6" d="M384.97,427.19l2.32-.49-2.64,8.89c-1.05,3.54-2.05,7.62-2.99,12.23-.52,2.51-.77,4.12-.77,4.85s.29,1.09.88,1.09c.37,0,.97-.25,1.79-.74,1.45-.87,2.85-1.95,4.18-3.23l1.12,1.37c-2.67,2.44-4.38,3.91-5.13,4.43-1.5,1.03-2.93,1.79-4.29,2.29-.89.33-1.76.49-2.6.49-.61,0-1.07-.14-1.37-.42-.3-.28-.46-.69-.46-1.23,0-.35.09-.83.28-1.44l1.41-4.78c-2.02,2.41-4.42,4.49-7.21,6.22-1.71,1.08-3.28,1.62-4.71,1.62s-2.4-.48-3.13-1.44c-.98-1.29-1.48-2.98-1.48-5.06,0-2.48.66-5.25,1.99-8.3,1.32-3.05,3.1-5.81,5.33-8.3,2.23-2.48,4.57-4.31,7.03-5.48,1.9-.89,4.34-1.34,7.31-1.34.75,0,1.51.05,2.29.14l.84-1.37ZM380.61,432.56c-1.27-.26-2.33-.39-3.2-.39-2.11,0-3.95.58-5.52,1.74-1.57,1.16-3.03,3.25-4.38,6.26-1.35,3.01-2.02,6.02-2.02,9.02,0,1.59.27,2.74.81,3.45.54.7,1.24,1.05,2.11,1.05,1.62,0,3.35-.87,5.2-2.62,1.85-1.75,3.21-4.26,4.08-7.54l2.92-10.97Z"/>
      </g>
    </g>
  </g>
  <g class="st7">
    <g class="st7">
      <g class="st7">
        <path class="st6" d="M215.16,493.29l-.16.67c-.54.12-.98.18-1.32.18s-.87-.04-1.63-.11c-.57-.05-1.08-.07-1.54-.07-.78,0-1.59.07-2.41.21l.16-.64c.79-.08,1.36-.24,1.72-.49.26-.18.48-.49.66-.92s.6-1.95,1.25-4.54l1.5-6.21.08-.29c-.46-.02-.81-.04-1.04-.04-1.45,0-2.59.16-3.44.47s-1.48.77-1.91,1.36-.64,1.24-.64,1.93c0,.24.04.47.13.67.06.14.23.37.52.68.27.29.4.56.4.8,0,.21-.08.39-.23.54-.16.15-.34.22-.56.22-.33,0-.59-.16-.8-.47-.3-.46-.45-1.05-.45-1.76,0-.95.29-1.88.88-2.78s1.4-1.59,2.43-2.09,2.29-.74,3.76-.74c.7,0,1.82.1,3.36.3,1.09.14,1.89.21,2.38.21s.84-.08,1.04-.25.3-.38.3-.66c0-.05-.01-.16-.04-.33-.02-.15-.04-.25-.04-.29,0-.21.07-.39.21-.53s.31-.21.5-.21c.23,0,.43.09.58.26s.23.4.23.69c0,.59-.32,1.11-.95,1.54-.63.43-1.69.64-3.17.64-.53,0-1.1-.02-1.7-.07-.08.28-.33,1.23-.74,2.86l-1.02,4.05-.62,2.47-.65,2.82c.52.06.96.09,1.3.09.52,0,1.07-.07,1.64-.2Z"/>
        <path class="st6" d="M227,491.48l.3.43c-.72.8-1.46,1.43-2.21,1.9-.52.32-.94.48-1.28.48-.27,0-.49-.11-.66-.33s-.25-.56-.25-1.02c0-.31.06-.77.19-1.37s.49-1.88,1.1-3.85c.27-.97.4-1.54.4-1.7,0-.25-.13-.38-.4-.38-.33,0-.74.16-1.23.49-.69.45-1.3,1.03-1.83,1.73-.34.45-.61,1.11-.81,2l-.92,4.09h-1.75c.38-1.37.66-2.48.87-3.35l1.72-7.52c.31-1.39.72-2.46,1.24-3.21.51-.75,1.18-1.35,2-1.79s1.64-.67,2.44-.67c.34,0,.6.08.8.25.2.17.29.38.29.63,0,.21-.1.4-.29.56-.19.16-.45.24-.78.24-.19,0-.43-.02-.73-.06-.67-.1-1.14-.15-1.4-.15-.36,0-.65.15-.88.44-.23.29-.46.97-.7,2.05l-1.31,5.78c.93-.97,1.94-1.8,3.04-2.47.64-.4,1.16-.6,1.55-.6.31,0,.54.09.72.27.17.18.26.43.26.75,0,.27-.03.53-.09.8-.1.46-.34,1.3-.72,2.51-.51,1.67-.81,2.71-.9,3.12-.09.41-.14.77-.14,1.09,0,.12.02.22.06.28s.11.09.19.09c.19,0,.54-.22,1.05-.67.29-.24.64-.53,1.05-.87Z"/>
        <path class="st6" d="M234.29,491.02l.39.52c-1.91,1.82-3.55,2.73-4.92,2.73-.55,0-.98-.19-1.27-.56s-.44-.98-.44-1.8c0-1.67.51-3.34,1.52-4.99,1.14-1.88,2.5-2.82,4.09-2.82.55,0,.98.14,1.27.42s.44.66.44,1.14-.18,1.01-.53,1.5-.98,1-1.89,1.54c-.45.26-1.42.72-2.91,1.39-.07.42-.11.82-.11,1.21,0,.55.09.94.26,1.16s.43.33.77.33.67-.09,1.05-.27c.52-.24,1.27-.73,2.26-1.48ZM230.19,489.32c1.26-.56,2.2-1.17,2.84-1.82.43-.45.64-.9.64-1.35,0-.34-.09-.6-.26-.8s-.4-.3-.69-.3-.57.11-.84.33c-.37.29-.68.73-.93,1.31-.36.86-.61,1.73-.76,2.62Z"/>
        <path class="st6" d="M254.91,482.73h-.62c.06-.4.09-.71.09-.95,0-.31-.13-.52-.39-.62s-1.25-.15-2.96-.15h-1.71s-1.29,5.18-1.29,5.18h2.42c.76,0,1.23-.06,1.41-.17s.3-.4.38-.85h.67c-.25.95-.47,1.98-.67,3.12h-.6c.04-.37.06-.65.06-.86,0-.09-.05-.19-.16-.32-.05-.06-.16-.11-.3-.13-.21-.04-.54-.06-.99-.06h-2.4c-.69,2.65-1.41,4.73-2.16,6.24.73-.23,1.37-.34,1.94-.34.94,0,2.09.15,3.45.45.72.16,1.21.25,1.47.25.34,0,.62-.09.83-.26.21-.17.32-.37.32-.58,0-.12-.05-.33-.16-.61-.07-.2-.1-.38-.1-.55s.07-.34.22-.48.32-.21.52-.21c.24,0,.44.09.6.28s.24.44.24.75c0,.66-.29,1.25-.87,1.75-.58.5-1.35.75-2.3.75-.5,0-1.13-.04-1.9-.13-1.68-.19-2.96-.28-3.85-.28-1.16,0-2.51.09-4.06.28l.19-.65c.93-.26,1.47-.44,1.64-.56s.3-.3.41-.53c.37-.74.86-2.23,1.46-4.46.6-2.23,1.2-4.59,1.82-7.07-.94,0-1.83.22-2.66.67s-1.49,1.02-1.96,1.74c-.47.71-.7,1.46-.7,2.25,0,.33.03.63.1.88.07.25.22.6.45,1.05.15.27.22.5.22.67s-.07.32-.22.46c-.14.13-.32.2-.53.2-.3,0-.54-.15-.72-.46-.26-.45-.4-1.05-.4-1.82,0-1.64.62-3.11,1.86-4.42s3.05-1.96,5.43-1.96h4.02c1.39,0,2.42-.09,3.08-.27-.31,1.3-.51,2.23-.6,2.78Z"/>
        <path class="st6" d="M261.6,484.1c.7,0,1.23.13,1.61.4s.57.58.57.93c0,.21-.08.39-.24.55s-.35.23-.58.23c-.15,0-.28-.03-.39-.1s-.27-.23-.47-.5c-.38-.51-.76-.76-1.14-.76-.32,0-.6.12-.85.37-.25.25-.37.55-.37.92,0,.32.08.63.23.93.16.3.55.79,1.18,1.46.87.92,1.3,1.79,1.3,2.62s-.35,1.55-1.05,2.17c-.7.62-1.61.93-2.72.93-.93,0-1.62-.19-2.07-.57s-.68-.85-.68-1.4c0-.27.09-.5.26-.68s.38-.27.63-.27c.22,0,.41.07.56.22s.23.31.23.51c0,.08,0,.18-.02.3,0,.1,0,.19,0,.26,0,.26.11.48.33.66.21.18.5.27.86.27.42,0,.79-.07,1.11-.22.32-.14.57-.36.75-.66.18-.29.27-.58.27-.87s-.08-.56-.25-.84c-.17-.28-.54-.75-1.13-1.39-.81-.91-1.22-1.78-1.22-2.61,0-.76.31-1.43.93-2.01s1.4-.86,2.36-.86Z"/>
        <path class="st6" d="M269.28,484.1c.7,0,1.23.13,1.61.4s.57.58.57.93c0,.21-.08.39-.24.55s-.35.23-.58.23c-.15,0-.28-.03-.39-.1s-.27-.23-.47-.5c-.38-.51-.76-.76-1.14-.76-.32,0-.6.12-.85.37-.25.25-.37.55-.37.92,0,.32.08.63.23.93.16.3.55.79,1.18,1.46.87.92,1.3,1.79,1.3,2.62s-.35,1.55-1.05,2.17c-.7.62-1.61.93-2.72.93-.93,0-1.62-.19-2.07-.57s-.68-.85-.68-1.4c0-.27.09-.5.26-.68s.38-.27.63-.27c.22,0,.41.07.56.22s.23.31.23.51c0,.08,0,.18-.02.3,0,.1,0,.19,0,.26,0,.26.11.48.33.66.21.18.5.27.86.27.42,0,.79-.07,1.11-.22.32-.14.57-.36.75-.66.18-.29.27-.58.27-.87s-.08-.56-.25-.84c-.17-.28-.54-.75-1.13-1.39-.81-.91-1.22-1.78-1.22-2.61,0-.76.31-1.43.93-2.01s1.4-.86,2.36-.86Z"/>
        <path class="st6" d="M277.95,491.02l.39.52c-1.91,1.82-3.55,2.73-4.92,2.73-.55,0-.98-.19-1.27-.56s-.44-.98-.44-1.8c0-1.67.51-3.34,1.52-4.99,1.14-1.88,2.5-2.82,4.09-2.82.55,0,.98.14,1.27.42s.44.66.44,1.14-.18,1.01-.53,1.5-.98,1-1.89,1.54c-.45.26-1.42.72-2.91,1.39-.07.42-.11.82-.11,1.21,0,.55.09.94.26,1.16s.43.33.77.33.67-.09,1.05-.27c.52-.24,1.27-.73,2.26-1.48ZM273.85,489.32c1.26-.56,2.2-1.17,2.84-1.82.43-.45.64-.9.64-1.35,0-.34-.09-.6-.26-.8s-.4-.3-.69-.3-.57.11-.84.33c-.37.29-.68.73-.93,1.31-.36.86-.61,1.73-.76,2.62Z"/>
        <path class="st6" d="M280.32,486.86l-.4-.41c1-.96,1.8-1.59,2.39-1.91.59-.31,1.1-.47,1.52-.47.16,0,.29.04.39.11s.14.15.14.25c0,.07-.02.2-.06.38l-.53,2.36c.8-.88,1.79-1.71,2.99-2.47.64-.4,1.17-.6,1.58-.6.3,0,.54.1.71.29.17.2.26.48.26.84,0,.24-.04.52-.1.82-.12.51-.45,1.61-.98,3.32-.5,1.59-.75,2.65-.75,3.18,0,.16.02.28.07.36s.11.12.2.12c.23,0,.58-.22,1.07-.66.34-.31.69-.6,1.03-.87l.29.42c-.72.79-1.46,1.43-2.24,1.91-.49.31-.9.47-1.22.47-.3,0-.53-.11-.69-.32s-.25-.56-.25-1.05c0-.7.43-2.43,1.3-5.19.27-.98.4-1.56.4-1.72,0-.24-.14-.36-.43-.36-.31,0-.71.16-1.21.49-.73.48-1.35,1.06-1.84,1.71-.31.42-.57,1.1-.79,2.02l-.95,4.1h-1.75c.33-1.17.61-2.3.86-3.37l1.04-4.46c.04-.18.06-.31.06-.39,0-.21-.08-.32-.23-.32-.12,0-.3.08-.54.25-.48.32-.94.72-1.36,1.18Z"/>
        <path class="st6" d="M297.44,491.42l.25.68c-1.86,1.46-3.43,2.19-4.71,2.19-.68,0-1.17-.24-1.48-.73s-.46-1.1-.46-1.84c0-1.23.33-2.5.98-3.81s1.45-2.3,2.39-3c.73-.54,1.56-.81,2.48-.81.58,0,1.02.11,1.31.33s.45.48.45.8c0,.24-.08.44-.23.59s-.38.23-.66.23-.62-.12-1.05-.38c-.45-.27-.82-.4-1.11-.4-.38,0-.76.17-1.14.52-.38.35-.74,1.02-1.08,2.02-.34,1-.52,2-.52,3.01,0,.74.14,1.31.43,1.72.21.31.51.47.89.47.91,0,2-.53,3.27-1.59Z"/>
        <path class="st6" d="M305.3,491.02l.39.52c-1.91,1.82-3.55,2.73-4.92,2.73-.55,0-.98-.19-1.27-.56s-.44-.98-.44-1.8c0-1.67.51-3.34,1.52-4.99,1.14-1.88,2.5-2.82,4.09-2.82.55,0,.98.14,1.27.42s.44.66.44,1.14-.18,1.01-.53,1.5-.98,1-1.89,1.54c-.45.26-1.42.72-2.91,1.39-.07.42-.11.82-.11,1.21,0,.55.09.94.26,1.16s.43.33.77.33.67-.09,1.05-.27c.52-.24,1.27-.73,2.26-1.48ZM301.2,489.32c1.26-.56,2.2-1.17,2.84-1.82.43-.45.64-.9.64-1.35,0-.34-.09-.6-.26-.8s-.4-.3-.69-.3-.57.11-.84.33c-.37.29-.68.73-.93,1.31-.36.86-.61,1.73-.76,2.62Z"/>
        <path class="st6" d="M326.53,483.04h-.63c.13-.66.2-1.08.2-1.27,0-.26-.09-.45-.27-.57-.18-.12-.52-.19-1.02-.19h-.75s-.25,0-.25,0h-2.34c-.05.18-.17.64-.38,1.37-.42,1.52-.74,2.76-.96,3.73h2.28c.55,0,.91-.05,1.08-.16.16-.11.3-.39.41-.83h.63c-.24.98-.45,2.01-.63,3.08h-.64c.05-.45.08-.71.08-.79,0-.19-.09-.33-.28-.42-.11-.05-.41-.09-.89-.11h-2.24c-.23,1.09-.52,2.26-.89,3.52-.37,1.26-.68,2.23-.95,2.92.62.1,1.18.15,1.67.15.32,0,.64-.02.95-.07l-.2.67c-.23.02-.44.04-.63.04-.17,0-.71-.03-1.62-.08-.54-.04-1-.06-1.37-.06-.76,0-1.57.07-2.43.21l.14-.64c.7-.15,1.15-.3,1.38-.47s.39-.36.51-.6c.24-.48.7-1.95,1.36-4.43l1.79-7.02c-1.05.03-1.96.27-2.75.7s-1.41,1.03-1.88,1.76-.7,1.49-.7,2.24c0,.3.04.62.12.94.04.18.15.44.33.77.23.41.34.7.34.87s-.07.31-.2.43-.3.18-.52.18c-.31,0-.57-.16-.76-.49-.27-.44-.4-1.06-.4-1.86,0-1.57.61-3.02,1.84-4.34,1.23-1.31,2.84-1.97,4.85-1.97h4.5c.5,0,1.05-.03,1.65-.09.18-.02.57-.1,1.16-.25-.4,1.63-.64,2.68-.71,3.13Z"/>
        <path class="st6" d="M332.32,484.1c.77,0,1.4.3,1.91.91s.76,1.46.76,2.54c0,1.73-.61,3.29-1.83,4.67s-2.51,2.07-3.87,2.07c-.84,0-1.51-.27-2.02-.82s-.77-1.29-.77-2.24c0-1.64.47-3.16,1.41-4.55,1.18-1.73,2.65-2.59,4.41-2.59ZM331.32,484.98c-.66,0-1.31.47-1.93,1.42s-.93,2.26-.93,3.93c0,1.02.19,1.82.57,2.4.28.43.66.64,1.12.64.66,0,1.25-.41,1.79-1.22.69-1.05,1.03-2.36,1.03-3.93,0-1.17-.16-2.01-.47-2.51s-.71-.75-1.19-.75Z"/>
        <path class="st6" d="M338.27,493.96h-1.75l.82-3.15c.4-1.55.75-3.02,1.04-4.41.07-.34.11-.56.11-.64,0-.19-.09-.28-.26-.28-.12,0-.3.08-.54.24s-.68.56-1.31,1.19l-.36-.41c.75-.8,1.5-1.41,2.24-1.81.75-.4,1.32-.6,1.72-.6.14,0,.25.03.33.1s.12.15.12.25-.05.37-.15.81l-.51,2.11c.79-1.25,1.68-2.31,2.68-3.2.48-.42.88-.63,1.2-.63.23,0,.43.08.59.23.16.15.23.33.23.53s-.08.39-.23.54-.53.32-1.14.53c-.58.2-1.05.43-1.41.7-.36.27-.76.69-1.19,1.25-.43.56-.74,1.05-.91,1.47-.17.42-.43,1.39-.79,2.91l-.53,2.27Z"/>
        <path class="st6" d="M359.31,493.27l-.25.69c-.49.12-.9.19-1.24.19-.37,0-.85-.03-1.46-.09-.57-.06-1.03-.09-1.36-.09-.48,0-1.21.05-2.2.16l.2-.6c.73-.19,1.2-.39,1.38-.61s.5-1.15.94-2.81.66-2.74.66-3.26c0-1.05-.2-2.12-.61-3.22s-.91-1.99-1.52-2.67c-1.15.42-1.97.82-2.47,1.19s-.89.83-1.2,1.37-.45,1.01-.45,1.42.18.77.54,1.11c.3.3.46.56.46.79,0,.2-.06.37-.18.5s-.27.2-.45.2c-.32,0-.59-.16-.81-.47-.3-.43-.45-.95-.45-1.55,0-.87.24-1.68.73-2.45s1.16-1.41,2.03-1.92c.51-.3,1.34-.63,2.51-.97.43-.12.82-.25,1.16-.39.66.79,1.19,1.72,1.59,2.78s.67,2.39.82,3.97c1.45-3.05,2.83-5.2,4.15-6.44s2.39-1.86,3.21-1.86c.26,0,.47.07.63.22.16.15.25.33.25.55s-.1.41-.29.55-.57.23-1.12.27c-.55.04-.97.15-1.27.33-.59.36-1.28,1.02-2.07,2-.79.97-1.58,2.18-2.35,3.64-.77,1.46-1.36,2.97-1.77,4.54s-.62,2.6-.65,3.08c.37.06.73.09,1.09.09.55,0,1.15-.08,1.81-.23Z"/>
        <path class="st6" d="M367.82,484.1c.77,0,1.4.3,1.91.91s.76,1.46.76,2.54c0,1.73-.61,3.29-1.83,4.67s-2.51,2.07-3.87,2.07c-.84,0-1.51-.27-2.02-.82s-.77-1.29-.77-2.24c0-1.64.47-3.16,1.41-4.55,1.18-1.73,2.65-2.59,4.41-2.59ZM366.83,484.98c-.66,0-1.31.47-1.93,1.42s-.93,2.26-.93,3.93c0,1.02.19,1.82.57,2.4.28.43.66.64,1.12.64.66,0,1.25-.41,1.79-1.22.69-1.05,1.03-2.36,1.03-3.93,0-1.17-.16-2.01-.47-2.51s-.71-.75-1.19-.75Z"/>
        <path class="st6" d="M379.53,484.41h1.67l-1.1,4.1c-.65,2.38-.97,3.73-.97,4.06,0,.15.04.26.11.34s.15.12.23.12c.13,0,.29-.06.47-.18.26-.18.75-.63,1.46-1.36l.39.43c-1.57,1.63-2.73,2.45-3.47,2.45-.25,0-.46-.1-.64-.29s-.26-.46-.26-.81c0-.41.08-.95.25-1.63-.69.8-1.55,1.5-2.58,2.1-.68.4-1.27.6-1.77.6-.27,0-.49-.09-.64-.27s-.23-.47-.23-.86c0-.3.04-.63.11-.99.1-.49.36-1.48.77-2.97.52-1.88.79-3.02.79-3.39,0-.22-.08-.33-.23-.33-.14,0-.33.07-.57.22s-.66.49-1.24,1.05l-.52-.41c1.05-.94,1.85-1.55,2.4-1.85s.99-.44,1.33-.44c.19,0,.34.07.46.21.12.14.18.35.18.64,0,.54-.28,1.87-.84,3.98-.5,1.9-.75,2.98-.75,3.25,0,.16.05.31.16.42s.22.18.35.18c.44,0,1.06-.36,1.86-1.08s1.33-1.54,1.58-2.47l1.28-4.82Z"/>
      </g>
    </g>
  </g>
  <g class="st7">
    <g class="st7">
      <g class="st7">
        <path class="st6" d="M245.38,676.03l-.43-5.67c-.09-1.16-.13-1.92-.13-2.28,0-1.06.15-2.03.45-2.92.3-.89.83-1.84,1.6-2.86-.91,0-1.84.22-2.79.66s-1.64.94-2.08,1.51c-.44.57-.66,1.15-.66,1.73,0,.27.08.55.24.84.21.38.31.66.31.86,0,.18-.05.33-.16.43-.11.11-.25.16-.42.16-.25,0-.47-.13-.65-.39-.23-.34-.35-.77-.35-1.28,0-.95.36-1.87,1.08-2.75.72-.88,1.7-1.54,2.95-1.96.8-.27,1.97-.46,3.51-.56.41-.03.84-.07,1.26-.12-1.06,1.55-1.74,2.84-2.07,3.87s-.48,2.44-.48,4.21c0,1.36.07,2.6.21,3.73l2.25-2.4,1.92-1.97c1.94-1.99,3.25-3.56,3.92-4.71.51-.87.76-1.66.76-2.37,0-.39-.09-.82-.27-1.29-.12-.3-.18-.52-.18-.68,0-.21.08-.39.24-.55s.35-.23.57-.23c.3,0,.55.15.75.46s.3.78.3,1.43-.13,1.3-.4,2.01c-.27.71-.82,1.61-1.68,2.7s-2.17,2.54-3.95,4.35c-1.87,1.89-3.75,3.9-5.65,6.03Z"/>
        <path class="st6" d="M261.39,672.62l.39.52c-1.91,1.82-3.55,2.73-4.92,2.73-.55,0-.98-.19-1.27-.56s-.44-.98-.44-1.8c0-1.67.51-3.34,1.52-4.99,1.14-1.88,2.5-2.82,4.09-2.82.55,0,.98.14,1.27.42s.44.66.44,1.14-.18,1.01-.53,1.5-.98,1-1.89,1.54c-.45.26-1.42.72-2.91,1.39-.07.42-.11.82-.11,1.21,0,.55.09.94.26,1.16s.43.33.77.33.67-.09,1.05-.27c.52-.24,1.27-.73,2.26-1.48ZM257.29,670.92c1.26-.56,2.2-1.17,2.84-1.82.43-.45.64-.9.64-1.35,0-.34-.09-.6-.26-.8s-.4-.3-.69-.3-.57.11-.84.33c-.37.29-.68.73-.93,1.31-.36.86-.61,1.73-.76,2.62Z"/>
        <path class="st6" d="M268.28,672.74l.4.42c-.61.69-1.33,1.31-2.16,1.88s-1.52.85-2.06.85c-.24,0-.44-.09-.6-.28s-.23-.44-.23-.76c0-.62.24-1.92.73-3.89l1.26-5.14c.46-1.86.85-3.11,1.16-3.74.48-.96,1.17-1.7,2.05-2.23.89-.53,1.82-.79,2.8-.79.34,0,.6.08.79.24.19.16.29.36.29.58,0,.25-.09.46-.28.62-.19.16-.46.24-.82.24-.23,0-.56-.04-.99-.12-.37-.06-.72-.09-1.04-.09s-.56.07-.72.2c-.23.19-.43.58-.61,1.18-.18.6-.48,1.78-.89,3.55l-1.17,4.91c-.58,2.46-.87,3.75-.87,3.86,0,.25.09.38.27.38s.42-.1.75-.3c.65-.41,1.3-.93,1.95-1.56Z"/>
        <path class="st6" d="M274.56,666.82c-.6.96-1.02,1.81-1.25,2.54s-.35,1.46-.35,2.19c0,.67.15,1.72.45,3.15,1.73-1.31,2.95-2.54,3.67-3.69s1.08-2.13,1.08-2.96c0-.24-.09-.55-.27-.91-.2-.39-.29-.68-.29-.87,0-.2.07-.38.21-.53s.31-.23.5-.23c.26,0,.46.11.62.33s.23.6.23,1.13c0,1.66-.59,3.29-1.77,4.86-1.45,1.94-3.28,3.43-5.5,4.48-.05-.37-.16-.95-.33-1.76-.32-1.62-.48-2.74-.48-3.38,0-.84.2-1.65.59-2.43s.97-1.47,1.73-2.04c-1.38.02-2.36.18-2.95.46-.42.2-.63.44-.63.71,0,.11.05.29.16.55.07.18.11.33.11.46s-.05.24-.16.33-.24.15-.39.15c-.2,0-.38-.09-.52-.26s-.21-.4-.21-.69c0-.46.15-.88.46-1.25s.83-.66,1.58-.87,1.74-.31,2.98-.29c.5-.22.82-.33.95-.33.12,0,.24.05.34.15s.15.21.15.33c0,.24-.24.46-.71.66Z"/>
        <path class="st6" d="M285.86,672.62l.39.52c-1.91,1.82-3.55,2.73-4.92,2.73-.55,0-.98-.19-1.27-.56s-.44-.98-.44-1.8c0-1.67.51-3.34,1.52-4.99,1.14-1.88,2.5-2.82,4.09-2.82.55,0,.98.14,1.27.42s.44.66.44,1.14-.18,1.01-.53,1.5-.98,1-1.89,1.54c-.45.26-1.42.72-2.91,1.39-.07.42-.11.82-.11,1.21,0,.55.09.94.26,1.16s.43.33.77.33.67-.09,1.05-.27c.52-.24,1.27-.73,2.26-1.48ZM281.76,670.92c1.26-.56,2.2-1.17,2.84-1.82.43-.45.64-.9.64-1.35,0-.34-.09-.6-.26-.8s-.4-.3-.69-.3-.57.11-.84.33c-.37.29-.68.73-.93,1.31-.36.86-.61,1.73-.76,2.62Z"/>
        <path class="st6" d="M291.16,663.9l1.86-.71-.84,3.28h2.43l-.19.83h-2.43l-1.02,3.93c-.32,1.18-.49,2-.49,2.46,0,.21.04.36.13.46s.21.14.37.14c.24,0,.61-.14,1.11-.43.66-.38,1.28-.82,1.88-1.3l.45.54c-1.71,1.29-2.86,2.08-3.43,2.37s-1.04.43-1.39.43c-.29,0-.52-.11-.69-.32s-.25-.55-.25-1.03c0-.56.15-1.42.45-2.58l1.19-4.66h-1.9l.21-.83h1.9l.66-2.57Z"/>
        <path class="st6" d="M316.69,664.34l.14-.53c1.13-.11,2.1-.27,2.91-.47-.19.55-.4,1.26-.63,2.15l-.89,3.3,1.08.06c.5.02,1.04-.1,1.63-.38s1.12-.75,1.58-1.44.7-1.43.7-2.23-.28-1.41-.85-1.88c-.57-.46-1.43-.69-2.59-.69-1.33,0-2.63.33-3.9.99s-2.25,1.5-2.94,2.53-1.04,2.04-1.04,3.04c0,.49.09.92.27,1.28s.5.72.96,1.07c.38.28.57.55.57.82,0,.17-.06.32-.19.43-.12.12-.27.18-.45.18-.46,0-.91-.32-1.34-.95s-.65-1.43-.65-2.4c0-1.77.68-3.39,2.04-4.85,1.78-1.92,4.17-2.88,7.17-2.88,1.14,0,2.08.15,2.81.45s1.28.7,1.64,1.22.54,1.07.54,1.68c0,.77-.25,1.52-.76,2.26s-1.26,1.33-2.25,1.79c-.99.45-2.1.68-3.31.68-.19,0-.48-.01-.88-.04l-.94,3.65c-.16.62-.33,1.23-.53,1.83.61.15,1.14.22,1.59.22.57,0,1.18-.11,1.84-.33l-.14.66c-.61.16-1.12.25-1.54.25s-1-.04-1.78-.13c-.62-.08-1.13-.12-1.52-.12-.76,0-1.53.09-2.33.27l.14-.62c.81-.13,1.37-.32,1.66-.57.42-.35.76-1.06,1.03-2.12l1.77-7.02c.08-.33.12-.56.12-.69,0-.12-.05-.24-.15-.33s-.22-.15-.36-.15c-.05,0-.13,0-.23.02Z"/>
        <path class="st6" d="M330.47,672.62l.39.52c-1.91,1.82-3.55,2.73-4.92,2.73-.55,0-.98-.19-1.27-.56s-.44-.98-.44-1.8c0-1.67.51-3.34,1.52-4.99,1.14-1.88,2.5-2.82,4.09-2.82.55,0,.98.14,1.27.42s.44.66.44,1.14-.18,1.01-.53,1.5-.98,1-1.89,1.54c-.45.26-1.42.72-2.91,1.39-.07.42-.11.82-.11,1.21,0,.55.09.94.26,1.16s.43.33.77.33.67-.09,1.05-.27c.52-.24,1.27-.73,2.26-1.48ZM326.37,670.92c1.26-.56,2.2-1.17,2.84-1.82.43-.45.64-.9.64-1.35,0-.34-.09-.6-.26-.8s-.4-.3-.69-.3-.57.11-.84.33c-.37.29-.68.73-.93,1.31-.36.86-.61,1.73-.76,2.62Z"/>
        <path class="st6" d="M335.77,663.9l1.86-.71-.84,3.28h2.43l-.19.83h-2.43l-1.02,3.93c-.33,1.18-.49,2-.49,2.46,0,.21.04.36.13.46s.21.14.37.14c.24,0,.61-.14,1.11-.43.66-.38,1.28-.82,1.88-1.3l.45.54c-1.71,1.29-2.86,2.08-3.43,2.37s-1.04.43-1.39.43c-.29,0-.52-.11-.69-.32s-.25-.55-.25-1.03c0-.56.15-1.42.45-2.58l1.19-4.66h-1.9l.21-.83h1.9l.66-2.57Z"/>
        <path class="st6" d="M348.16,665.51l.77-.16-.88,2.96c-.35,1.18-.68,2.54-1,4.08-.17.84-.26,1.38-.26,1.62s.1.36.29.36c.12,0,.32-.08.6-.25.48-.29.95-.65,1.39-1.08l.38.46c-.89.81-1.46,1.3-1.71,1.48-.5.34-.98.6-1.43.76-.3.11-.59.16-.87.16-.2,0-.36-.05-.46-.14s-.15-.23-.15-.41c0-.12.03-.28.09-.48l.47-1.59c-.67.8-1.47,1.5-2.4,2.07-.57.36-1.09.54-1.57.54s-.8-.16-1.04-.48c-.33-.43-.49-.99-.49-1.69,0-.83.22-1.75.66-2.77s1.03-1.94,1.78-2.77,1.52-1.44,2.34-1.83c.63-.3,1.45-.45,2.44-.45.25,0,.5.02.76.05l.28-.46ZM346.71,667.3c-.42-.09-.78-.13-1.07-.13-.7,0-1.32.19-1.84.58s-1.01,1.08-1.46,2.09-.67,2.01-.67,3.01c0,.53.09.91.27,1.15s.41.35.7.35c.54,0,1.12-.29,1.73-.87s1.07-1.42,1.36-2.51l.97-3.66Z"/>
        <path class="st6" d="M355.12,672.74l.4.42c-.61.69-1.33,1.31-2.16,1.88s-1.52.85-2.06.85c-.24,0-.44-.09-.6-.28s-.23-.44-.23-.76c0-.62.24-1.92.73-3.89l1.26-5.14c.46-1.86.85-3.11,1.16-3.74.48-.96,1.17-1.7,2.05-2.23.89-.53,1.82-.79,2.8-.79.33,0,.6.08.79.24.19.16.29.36.29.58,0,.25-.09.46-.28.62-.19.16-.46.24-.82.24-.23,0-.56-.04-.99-.12-.37-.06-.72-.09-1.04-.09s-.56.07-.72.2c-.23.19-.43.58-.61,1.18-.18.6-.48,1.78-.89,3.55l-1.17,4.91c-.58,2.46-.87,3.75-.87,3.86,0,.25.09.38.27.38s.42-.1.75-.3c.65-.41,1.3-.93,1.95-1.56Z"/>
      </g>
    </g>
  </g>
  <g class="st7">
    <g class="st7">
      <g class="st7">
        <path class="st6" d="M270.76,689.9l-.6-.29c.62-1.23,1.26-2.08,1.92-2.55s1.4-.71,2.22-.71c.98,0,1.77.31,2.36.94s.88,1.35.88,2.19c0,.52-.11,1.04-.32,1.57-.21.53-.56,1.09-1.04,1.66-.31.38-1.17,1.18-2.58,2.38-1.89,1.64-3.22,2.97-3.98,3.98,1.02-.05,2.08-.07,3.16-.07.35,0,.66,0,.91.01.57.02.96-.03,1.17-.16s.56-.58,1.04-1.34h.81c-.63.88-1.18,1.95-1.65,3.22-.55-.1-1.14-.18-1.76-.23s-1.27-.08-1.95-.08c-.8,0-1.99.05-3.55.15l.23-.74c.71-1.06,1.77-2.25,3.19-3.58,1.4-1.31,2.3-2.23,2.71-2.76.59-.76,1.01-1.47,1.28-2.15.2-.5.3-.99.3-1.45,0-.7-.19-1.27-.57-1.69-.38-.42-.86-.63-1.42-.63-.47,0-.93.17-1.38.51-.45.34-.91.94-1.39,1.81Z"/>
        <path class="st6" d="M284.84,686.37c1.12,0,2.01.41,2.69,1.23s1.01,2.05,1.01,3.68c0,2.32-.58,4.48-1.75,6.48-1.17,2-2.58,3-4.25,3-.98,0-1.8-.43-2.48-1.28s-1.01-2.01-1.01-3.48c0-1.73.34-3.42,1.01-5.07.67-1.65,1.43-2.83,2.27-3.52s1.68-1.04,2.51-1.04ZM284.63,687.06c-.48,0-.98.32-1.48.97s-.97,1.83-1.39,3.54c-.43,1.72-.64,3.35-.64,4.91,0,1.25.18,2.16.54,2.73.36.57.78.86,1.25.86.41,0,.82-.21,1.23-.62.6-.62,1.14-1.78,1.63-3.49.48-1.71.73-3.43.73-5.16,0-1.34-.2-2.34-.61-3-.3-.49-.72-.74-1.25-.74Z"/>
        <path class="st6" d="M295.4,686.37c1.12,0,2.01.41,2.69,1.23s1.01,2.05,1.01,3.68c0,2.32-.58,4.48-1.75,6.48-1.17,2-2.58,3-4.25,3-.98,0-1.8-.43-2.48-1.28s-1.01-2.01-1.01-3.48c0-1.73.34-3.42,1.01-5.07.67-1.65,1.43-2.83,2.27-3.52s1.68-1.04,2.51-1.04ZM295.18,687.06c-.48,0-.98.32-1.48.97s-.97,1.83-1.39,3.54c-.43,1.72-.64,3.35-.64,4.91,0,1.25.18,2.16.54,2.73.36.57.78.86,1.25.86.41,0,.82-.21,1.23-.62.6-.62,1.14-1.78,1.63-3.49.48-1.71.73-3.43.73-5.16,0-1.34-.2-2.34-.61-3-.3-.49-.72-.74-1.25-.74Z"/>
      </g>
    </g>
    <g class="st7">
      <g class="st7">
        <path class="st6" d="M314.04,700.92l-.93-12.62c-.2,2.12-.58,4.11-1.12,5.95s-1.17,3.26-1.86,4.27-1.41,1.71-2.13,2.12-1.45.61-2.16.61c-.43,0-.76-.09-.99-.26s-.35-.39-.35-.64c0-.21.08-.39.25-.55s.38-.23.64-.23c.19,0,.46.04.81.12.32.08.59.12.8.12.37,0,.75-.14,1.15-.41.6-.41,1.2-1.13,1.79-2.18.59-1.05,1.12-2.51,1.58-4.39.46-1.88.76-3.71.87-5.5-1.77,0-3.21.44-4.32,1.32-.88.7-1.32,1.49-1.32,2.36,0,.38.21.84.62,1.38.22.29.34.52.34.7,0,.2-.06.37-.19.5-.13.13-.28.2-.46.2-.3,0-.57-.17-.8-.52-.32-.46-.48-1.01-.48-1.64,0-.89.3-1.74.9-2.56s1.43-1.44,2.48-1.86,2.3-.64,3.72-.65c.77,0,1.38-.07,1.84-.21-.03.7-.04,1.08-.03,1.14,0,.07,0,.23.03.48l.68,8.92c1.89-3.3,3.74-6.01,5.54-8.14,1.28-1.51,2.4-2.53,3.35-3.06-.54,1.48-1.12,3.44-1.74,5.87l-1.44,5.62c-.08.31-.18.77-.32,1.37l-.28,1.25c.59.14,1.14.21,1.63.21.4,0,.83-.05,1.28-.14l-.15.68c-.4.07-.71.11-.93.11-.32,0-.78-.04-1.38-.11-.49-.06-.93-.09-1.31-.09-.41,0-.87.08-1.38.23.43-1.12.88-2.64,1.35-4.54l.9-3.59c.38-1.55.72-2.61,1-3.19-.63.71-1.59,2.02-2.9,3.92-1.05,1.53-2.23,3.47-3.53,5.82l-1.02,1.79Z"/>
        <path class="st6" d="M324.3,700.62l.14-.63c.82-.16,1.37-.34,1.65-.54s.53-.56.75-1.08.53-1.59.91-3.22c.51-2.15.97-3.7,1.38-4.64.63-1.42,1.42-2.48,2.36-3.16s1.89-1.03,2.85-1.03c.62,0,1.14.16,1.56.47s.63.64.63.97c0,.19-.06.35-.19.48s-.28.2-.46.2c-.23,0-.52-.15-.85-.46-.38-.33-.67-.54-.87-.64s-.41-.15-.6-.15c-.23,0-.45.06-.67.19-.3.17-.63.5-.98.98-.35.48-.71,1.19-1.08,2.14-.24.64-.55,1.7-.93,3.16-.59,2.34-1.03,3.89-1.34,4.65-.22.55-.48,1-.8,1.36,1.12-.24,2.01-.36,2.67-.36.41,0,.8.03,1.15.08s.96.18,1.84.38c.76.18,1.29.27,1.59.27s.55-.09.76-.28.31-.39.31-.63c0-.15-.05-.36-.16-.62-.1-.25-.15-.45-.15-.6,0-.21.06-.38.19-.5.12-.12.29-.18.49-.18.23,0,.43.1.6.31s.25.49.25.85c0,.68-.28,1.27-.84,1.76s-1.32.74-2.29.74c-.48,0-1.09-.04-1.84-.11-2.53-.23-4.19-.34-4.97-.34-1.15,0-2.16.07-3.05.2Z"/>
      </g>
    </g>
  </g>
</svg>